<?xml version="1.0" encoding="utf-8"?>
<!-- Svg Vector Icons : http://www.onlinewebfonts.com/icon -->
<!DOCTYPE svg PUBLIC "-//W3C//DTD SVG 1.1//EN" "http://www.w3.org/Graphics/SVG/1.1/DTD/svg11.dtd">
<svg version="1.1" xmlns="http://www.w3.org/2000/svg" xmlns:xlink="http://www.w3.org/1999/xlink" x="0px" y="0px" viewBox="0 0 1000 1000" enable-background="new 0 0 1000 1000" xml:space="preserve">
<metadata> Svg Vector Icons : http://www.onlinewebfonts.com/icon </metadata>
<g><path d="M500,990C229.4,990,10,770.6,10,500C10,229.4,229.4,10,500,10c270.6,0,490,219.4,490,490C990,770.6,770.6,990,500,990L500,990z M792.5,661l-320.8-94.4c0-0.4,0.2-0.7,0.2-1V221.9c0-23.7-20.2-42.9-45.1-42.9c-24.9,0-45,19.2-45,42.9v343.6c0,9.9,4.1,18.5,10,25.7c-5.3,21.7,7.2,43.9,29.8,50.6l343.9,101.2c23.8,7,49-5.7,56.5-28.4C829.4,692,816.2,667.9,792.5,661L792.5,661L792.5,661z"/></g>
</svg>
