<svg width="20" height="16" viewBox="0 0 20 16" fill="none" xmlns="http://www.w3.org/2000/svg">
<path fill-rule="evenodd" clip-rule="evenodd" d="M2.75 0C1.23122 0 0 1.23122 0 2.75V4.99707H19.9961V6.49707H0V13.2432C0 14.762 1.23122 15.9932 2.75 15.9932L17.2461 15.9932C18.7649 15.9932 19.9961 14.762 19.9961 13.2432L19.9961 5.043C19.9962 4.27675 19.9963 3.51013 19.9957 2.7436C19.9945 1.22639 18.7633 0 17.248 0H2.75ZM4.75 8.49707C4.33579 8.49707 4 8.83286 4 9.24707C4 9.66128 4.33579 9.99707 4.75 9.99707H7.75C8.16421 9.99707 8.5 9.66128 8.5 9.24707C8.5 8.83286 8.16421 8.49707 7.75 8.49707H4.75Z" fill="white"/>
</svg>
