<svg width="20" height="20" viewBox="0 0 20 20" fill="none" xmlns="http://www.w3.org/2000/svg">
<path d="M1.27216e-10 9.37543H5.49253C5.543 6.76297 5.9871 4.38853 6.69504 2.61867C7.07092 1.67899 7.53099 0.884986 8.06745 0.31773C8.1755 0.203481 8.28804 0.0970858 8.40487 3.75185e-06C3.79465 0.73314 0.234313 4.617 1.27216e-10 9.37543Z" fill="white"/>
<path d="M0 10.3754C0.234313 15.1339 3.79465 19.0177 8.40487 19.7509C8.28804 19.6538 8.1755 19.5474 8.06745 19.4331C7.53099 18.8659 7.07092 18.0719 6.69504 17.1322C5.9871 15.3623 5.543 12.9879 5.49253 10.3754H0Z" fill="white"/>
<path d="M11.5705 19.7509C16.1808 19.0177 19.7411 15.1339 19.9754 10.3754H14.4829C14.4324 12.9879 13.9883 15.3623 13.2804 17.1322C12.9045 18.0719 12.4444 18.8659 11.908 19.4331C11.7999 19.5474 11.6874 19.6538 11.5705 19.7509Z" fill="white"/>
<path d="M19.9754 9.37543C19.7411 4.61699 16.1808 0.733126 11.5705 0C11.6874 0.097083 11.7999 0.20348 11.908 0.31773C12.4444 0.884986 12.9045 1.67899 13.2804 2.61867C13.9883 4.38853 14.4324 6.76297 14.4829 9.37543H19.9754Z" fill="white"/>
<path d="M11.1814 1.00484C10.7618 0.561095 10.3582 0.375434 9.98771 0.375434C9.61721 0.375434 9.21366 0.561095 8.79401 1.00484C8.37336 1.44964 7.9715 2.1201 7.62352 2.99006C6.97161 4.61983 6.54319 6.86307 6.49272 9.37543H13.4827C13.4322 6.86307 13.0038 4.61983 12.3519 2.99006C12.0039 2.1201 11.6021 1.44964 11.1814 1.00484Z" fill="white"/>
<path d="M12.3519 16.7608C13.0038 15.131 13.4322 12.8878 13.4827 10.3754H6.49272C6.54319 12.8878 6.97161 15.131 7.62352 16.7608C7.9715 17.6308 8.37336 18.3012 8.79401 18.746C9.21366 19.1898 9.61721 19.3754 9.98771 19.3754C10.3582 19.3754 10.7618 19.1898 11.1814 18.746C11.6021 18.3012 12.0039 17.6308 12.3519 16.7608Z" fill="white"/>
</svg>
