<svg width="22" height="22" viewBox="0 0 22 22" fill="none" xmlns="http://www.w3.org/2000/svg">
<path d="M7.80806 7.8194C7.6085 7.24991 7.5 6.63763 7.5 6C7.5 3.54118 9.11349 1.45921 11.3395 0.755114C10.6816 0.279988 9.8735 0 9 0C6.79086 0 5 1.79086 5 4C5 5.79402 6.18105 7.31219 7.80806 7.8194Z" fill="white"/>
<path d="M13 2C12.4815 2 11.9837 2.09916 11.5264 2.28047C10.0482 2.86648 9 4.30961 9 6C9 6.36293 9.04859 6.71607 9.14019 7.05257C9.60236 8.75034 11.154 10 13 10C15.2091 10 17 8.20914 17 6C17 3.79086 15.2091 2 13 2Z" fill="white"/>
<path fill-rule="evenodd" clip-rule="evenodd" d="M6 14.18V18H7C7.12311 18 7.24516 18.0227 7.36001 18.067L7.36414 18.0686L7.38139 18.0752C7.39719 18.0812 7.42145 18.0903 7.4534 18.1021C7.51733 18.1258 7.61185 18.1603 7.73084 18.2022C7.96931 18.2861 8.30355 18.3989 8.68503 18.5137C9.47058 18.7501 10.3725 18.969 11.0476 19.0011C14.2073 19.1516 16.7557 17.7009 18.9052 15.337C19.0667 15.1593 19.097 14.847 18.8926 14.5915C18.6553 14.2948 18.1227 14.206 17.7169 14.528C16.8327 15.2297 15.5588 16.1056 14.2672 16.4636C13.5479 16.663 12.8391 16.7898 12.2769 16.8693C11.906 16.9264 11.5139 16.9687 11.1018 16.9955L11.0796 16.997L11.0631 16.998L11.0581 16.9983L11.0564 16.9984L11.0552 16.9985C10.5052 17.0289 10.0341 16.6087 10.0017 16.0588C9.96933 15.5089 10.3878 15.0363 10.9376 15.0019C10.952 15.001 10.9663 15.0001 10.9805 14.9992L10.9971 14.9981C11.0357 14.9954 11.0943 14.9909 11.1702 14.9843C11.322 14.9711 11.5419 14.9491 11.8069 14.9148C11.8679 14.9069 11.931 14.8983 11.9961 14.8891C13.2415 14.6947 13.9723 14.3335 14.3126 14.0249C14.412 13.9347 14.4649 13.861 14.4918 13.8119C14.5176 13.7648 14.5195 13.7406 14.5197 13.7369C14.5199 13.7344 14.5204 13.7273 14.5132 13.7099C14.5045 13.6893 14.4803 13.6444 14.4179 13.582C14.1347 13.2988 13.3077 12.9071 11.7123 12.9218C10.2872 12.9349 8.37362 13.2753 6 14.18ZM16.3926 13.0253C16.2734 12.7024 16.0771 12.4128 15.8321 12.1678C14.9903 11.326 13.5048 10.9052 11.6939 10.9219C10.0167 10.9373 7.91792 11.3254 5.43966 12.2537C4.89531 11.4946 4.00542 11 3 11C1.34315 11 0 12.3431 0 14V18C0 19.6568 1.34315 21 3 21C3.8885 21 4.68679 20.6137 5.23611 20H6.81947C6.88588 20.0243 6.96921 20.0544 7.06681 20.0887C7.32704 20.1803 7.69123 20.3032 8.10871 20.4288C8.92107 20.6733 10.0192 20.9544 10.9524 20.9989C14.8853 21.1861 17.971 19.3373 20.3849 16.6825C21.2655 15.7141 21.2176 14.2962 20.4543 13.3421C19.4442 12.0794 17.632 12.0421 16.4736 12.9614C16.4468 12.9827 16.4198 13.004 16.3926 13.0253Z" fill="white"/>
</svg>
