<svg xmlns="http://www.w3.org/2000/svg" viewBox="0 0 55.18 55.17">
  <title>view-accounts</title>
  <g id="Layer_2" data-name="Layer 2">
    <g id="Layer_1-2" data-name="Layer 1">
      <path fill="currentColor" d="M55.18,27.62A27.59,27.59,0,1,1,27.59,0,27.52,27.52,0,0,1,55.18,27.62Zm-27.42-26c-14-.3-25.84,11.35-26.17,25.82-.31,14,11.34,25.83,25.83,26.17,14,.32,25.85-11.35,26.17-25.82C53.9,13.73,42.23,1.91,27.76,1.59Z"/>
      <path fill="currentColor" d="M21.19,31.62c1.72,1.37,3.33,2.56,5.6,2.77,0-1.82,0-3.52,0-5.21,0-.29-.38-.66-.67-.84a12.92,12.92,0,0,0-1.53-.63A5.22,5.22,0,0,1,21,22.38c.12-2.45,1.35-4.06,4.08-4.68,1.53-.34,1.92-1,1.74-2.41a16.86,16.86,0,0,1,0-2h2.78V17l5.9,1.86L34.07,22,29.61,20.2c0,1.86,0,3.42,0,5,0,.31.46.7.8.88.73.38,1.54.6,2.27,1a5,5,0,0,1,3,4.88,5.14,5.14,0,0,1-3.46,4.86c-.79.33-1.64.54-2.6.84v3.87H26.8c0-1,0-1.92,0-2.87s-.29-1-1-1.27A40.32,40.32,0,0,1,21,35.51a1.31,1.31,0,0,1-.67-2.18A13,13,0,0,0,21.19,31.62Zm8.47,2.8C31,34,31.91,33.33,31.87,32s-.93-2.05-2.21-2.5Zm-3-9.72V20.32c-1,.4-1.84.68-1.9,1.84S25.46,24.15,26.69,24.7Z"/>
    </g>
  </g>
</svg>
