<?xml version="1.0" encoding="utf-8"?>
<!-- Generator: Adobe Illustrator 16.0.0, SVG Export Plug-In . SVG Version: 6.00 Build 0)  -->
<!DOCTYPE svg PUBLIC "-//W3C//DTD SVG 1.1//EN" "http://www.w3.org/Graphics/SVG/1.1/DTD/svg11.dtd">
<svg version="1.1" id="Layer_1" xmlns="http://www.w3.org/2000/svg" xmlns:xlink="http://www.w3.org/1999/xlink" x="0px" y="0px"
	 width="18.641px" height="18.75px" viewBox="0 0 18.641 18.75" enable-background="new 0 0 18.641 18.75" xml:space="preserve">
<g>
	<path fill="#f49c0e" d="M1.194,9.368c0-1.147,0.014-2.294-0.005-3.44C1.177,5.071,1.537,4.463,2.277,4.041
		c2.012-1.149,4.014-2.314,6.025-3.465c0.668-0.383,1.351-0.402,2.032-0.009c2.033,1.173,4.068,2.345,6.102,3.517
		c0.502,0.288,0.852,0.695,0.969,1.273c0.033,0.163,0.043,0.335,0.043,0.502c0.002,2.344-0.003,4.688,0.004,7.031
		c0.003,0.789-0.328,1.362-1.01,1.755c-2.017,1.162-4.037,2.323-6.045,3.503c-0.733,0.431-1.424,0.427-2.156-0.003
		c-2.014-1.183-4.039-2.345-6.062-3.514c-0.483-0.28-0.826-0.668-0.938-1.227c-0.036-0.181-0.044-0.372-0.045-0.558
		C1.192,11.687,1.194,10.528,1.194,9.368 M16.949,9.383c0-1.166-0.002-2.331,0.001-3.496c0.001-0.599-0.251-1.038-0.773-1.338
		c-2.041-1.175-4.077-2.355-6.113-3.537C9.57,0.725,9.084,0.721,8.589,1.007C6.555,2.179,4.523,3.354,2.485,4.52
		C1.956,4.822,1.694,5.26,1.694,5.867c0.002,2.344,0.001,4.687,0,7.03c0,0.59,0.244,1.021,0.766,1.32
		c2.037,1.167,4.07,2.34,6.093,3.531c0.534,0.313,1.017,0.297,1.534-0.004c2.04-1.187,4.085-2.366,6.127-3.549
		c0.107-0.063,0.214-0.133,0.305-0.216c0.326-0.293,0.431-0.676,0.43-1.099C16.948,11.714,16.949,10.549,16.949,9.383"/>
	<path fill="#f49c0e" d="M9.332,12.958c-1.379,0-2.757-0.003-4.136,0.004c-0.189,0-0.258-0.052-0.243-0.244
		c0.035-0.466,0.001-0.945,0.097-1.398c0.234-1.088,1.276-1.912,2.395-1.925c1.253-0.016,2.506-0.015,3.759-0.001
		c1.301,0.014,2.383,1.107,2.475,2.286c0.031,0.38,0.021,0.763,0.035,1.144c0.003,0.117-0.061,0.134-0.153,0.134
		c-0.245-0.001-0.489,0-0.733,0H9.332z M13.152,12.44c0-0.288,0.042-0.57-0.008-0.835c-0.194-1.036-1.014-1.704-2.072-1.708
		C9.906,9.892,8.741,9.889,7.575,9.901C7.317,9.904,7.044,9.94,6.803,10.03c-0.969,0.365-1.475,1.309-1.308,2.41H13.152z"/>
	<path fill="#f49c0e" d="M9.324,8.541C8.14,8.542,7.155,7.571,7.158,6.38C7.16,5.163,8.116,4.204,9.332,4.212
		c1.242,0.008,2.154,0.987,2.156,2.167C11.49,7.568,10.505,8.541,9.324,8.541 M10.979,6.366c-0.032-0.93-0.726-1.646-1.659-1.643
		C8.37,4.726,7.672,5.458,7.67,6.371C7.669,7.302,8.396,8.032,9.333,8.022C10.298,8.013,10.959,7.256,10.979,6.366"/>
</g>
</svg>
