<svg width="192" height="46" viewBox="0 0 192 46" fill="none" xmlns="http://www.w3.org/2000/svg">
<g clip-path="url(#clip0_192_1094)">
<path d="M84.3936 0.5H96.9361C110.108 0.5 118.769 7.42099 118.769 23.0799C118.769 38.7576 110.106 46.0792 97.5154 46.0792H84.3936V0.5ZM96.368 37.7705C103.431 37.7705 108.234 33.9831 108.234 23.0812C108.234 12.1955 103.431 8.80868 96.368 8.80868H94.6688V37.7705H96.368Z" fill="#00569E"/>
<path d="M22.108 18.0807H18.5541L34.9092 0.504883H6.45408C3.16492 0.504883 0.498535 3.18168 0.498535 6.48369V45.3416C0.498535 45.7459 0.826705 46.0753 1.22946 46.0753H10.8744V28.4971L22.108 18.0807Z" fill="#F49C0E"/>
<path d="M34.9092 0.504883V18.0807L23.6756 28.4958H27.2296L10.8745 46.0741H39.3308C42.6188 46.0741 45.2839 43.3973 45.2839 40.0953V1.23866C45.2839 0.833087 44.957 0.504883 44.553 0.504883H34.9092Z" fill="#F49C0E"/>
<path d="M63.0775 37.4286V28.3612V26.8674V19.7118V18.218V9.14937H68.9858H74.3745H77.5369L78.0701 8.30327L82.9877 0.5H63.1745C63.1421 0.5 63.1086 0.504992 63.0775 0.504992C57.3942 0.557405 52.7998 5.19594 52.7998 10.9139V35.664C52.7998 41.382 57.3929 46.0205 63.0775 46.0742H68.9858H74.3745H77.5369L78.0701 45.2281L82.989 37.4236H63.1745C63.1421 37.4236 63.1086 37.4286 63.0775 37.4286Z" fill="#00569E"/>
<path d="M176.975 22.6469L190.491 0.5H179.275L173.702 9.71592C173.284 10.3836 172.853 11.1198 172.413 11.9297C171.972 12.7396 171.565 13.5258 171.195 14.2883H171.055C170.728 13.5271 170.347 12.7409 169.906 11.9297C169.464 11.1198 169.034 10.3823 168.616 9.71592L163.041 0.5H151.197L164.784 22.9314L154.022 40.3737L141.651 0.5H129.332L115.192 46.0792H125.707L128.479 35.2372L129.897 29.6902H140.733L142.142 35.2372L144.896 46.0792H155.792H161.719L167.78 36.2206C168.245 35.4606 168.732 34.6357 169.243 33.7559C169.754 32.8737 170.195 32.0301 170.567 31.2189H170.706C171.124 32.0301 171.576 32.8861 172.065 33.7909C172.553 34.6981 173.006 35.5068 173.423 36.2206L179.345 46.0792H191.191L176.975 22.6469ZM131.985 21.4951C133.03 17.2996 134.14 12.5924 135.131 8.30327H135.409C136.382 12.5924 137.586 17.2983 138.651 21.4951H131.985Z" fill="#00569E"/>
</g>
<defs>
<clipPath id="clip0_192_1094">
<rect width="191" height="45" fill="white" transform="translate(0.5 0.5)"/>
</clipPath>
</defs>
</svg>
