<svg xmlns="http://www.w3.org/2000/svg" viewBox="0 0 49.4 55.17">
  <title>add-beneficiary</title>
  <g id="Layer_2" data-name="Layer 2">
    <g id="Layer_1-2" data-name="Layer 1">
      <path fill="currentColor" d="M0,27.53C0,24,.05,20.5,0,17A6,6,0,0,1,3.25,11.4C9.29,7.92,15.33,4.46,21.37,1A6.23,6.23,0,0,1,28.1,1c6,3.49,12,6.92,18,10.37a6.07,6.07,0,0,1,3.31,5.7q-.06,10.53,0,21.07a5.85,5.85,0,0,1-3.16,5.47q-9.18,5.3-18.35,10.62a5.92,5.92,0,0,1-6.45,0Q12.35,48.89,3.22,43.65A5.9,5.9,0,0,1,0,38.06C.05,34.55,0,31,0,27.53Zm47.7.1c0-3.52,0-7,0-10.54a4.4,4.4,0,0,0-2.41-4.18Q36.2,7.66,27.1,2.36a4.47,4.47,0,0,0-4.83,0q-9,5.25-18.12,10.43a4.53,4.53,0,0,0-2.48,4.29q.06,10.47,0,20.93a4.5,4.5,0,0,0,2.46,4.29q9.06,5.2,18.09,10.47a4.5,4.5,0,0,0,5,0q9-5.26,18.1-10.47A4.46,4.46,0,0,0,47.73,38C47.67,34.55,47.71,31.09,47.71,27.63Z"/>
      <path fill="currentColor" d="M38,38.4H11.61c-1.06-5.16,1.34-9.55,5.86-10.61a14.7,14.7,0,0,1,3.25-.23c2.94,0,5.88,0,8.82,0C34.72,27.58,38,30.79,38,36,38,36.72,38,37.47,38,38.4Zm-1.84-1.66c.47-4.54-2-7.46-6.36-7.5-3.6,0-7.21-.07-10.81,0a6,6,0,0,0-5.73,7.47Z"/>
      <path fill="currentColor" d="M24.69,25.05a6.59,6.59,0,1,1,6.64-6.58A6.64,6.64,0,0,1,24.69,25.05Zm0-11.5a4.91,4.91,0,1,0,4.95,4.95A4.94,4.94,0,0,0,24.7,13.55Z"/>
    </g>
  </g>
</svg>
