<svg width="48" height="48" viewBox="0 0 48 48" fill="none" xmlns="http://www.w3.org/2000/svg">
<rect width="48" height="48" rx="24" fill="#00569E"/>
<path d="M24.5304 35.3398C30.3943 35.0887 35.0866 30.3908 35.3321 24.5269H34.3055C34.1213 24.5381 33.9428 24.4544 33.8312 24.3037C33.7085 24.1419 33.6973 23.9243 33.7921 23.7458C33.8703 23.5617 34.0488 23.4445 34.2497 23.4557H35.3655C35.3655 23.2827 35.3655 23.1265 35.3321 22.9647C35.187 21.3411 34.696 19.7677 33.8926 18.3505C33.7642 18.1608 33.7642 17.9153 33.8926 17.7256C33.993 17.5582 34.1827 17.4578 34.378 17.4801C34.5788 17.4969 34.7574 17.614 34.8411 17.7981C35.4381 18.8471 35.8788 19.9741 36.1467 21.1458C36.4256 22.3398 36.5261 23.5728 36.4479 24.7947C36.2471 28.0531 34.7741 31.105 32.3415 33.2865C31.1029 34.4024 29.6522 35.2561 28.0788 35.7973C27.2364 36.0874 26.3604 36.2827 25.4733 36.3831C24.469 36.5059 23.4535 36.5059 22.4492 36.3831C19.7042 36.0428 17.1544 34.7986 15.196 32.8513C13.8849 31.5514 12.875 29.9668 12.2557 28.226C11.9488 27.3891 11.7368 26.5187 11.6308 25.6316C11.5694 25.1518 11.5471 24.6664 11.5304 24.181C11.5025 23.2436 11.5917 22.3063 11.7982 21.3913C12.6797 17.2123 15.648 13.7754 19.654 12.2913C20.6583 11.923 21.7016 11.6887 22.7617 11.5827C24.2291 11.4376 25.7132 11.5604 27.1415 11.9342C28.7316 12.3582 30.2269 13.078 31.5437 14.0655C31.7166 14.166 31.8282 14.3501 31.8282 14.5509C31.8282 14.7574 31.7166 14.9415 31.5325 15.0308C31.354 15.1145 31.1364 15.0977 30.9746 14.9861C30.478 14.6625 29.9926 14.311 29.4737 14.0209C28.2853 13.3625 26.9909 12.9329 25.6462 12.7432C25.278 12.693 24.9098 12.6595 24.5304 12.6205V13.675C24.5304 13.9818 24.2793 14.2329 23.9724 14.2329C23.8831 14.2329 23.7995 14.2106 23.7213 14.1715C23.5428 14.0655 23.4368 13.8703 23.448 13.6638V12.6205C21.0488 12.7153 18.7501 13.5801 16.881 15.0866C14.3089 17.123 12.7523 20.1805 12.6128 23.4557H13.645C13.9184 23.4333 14.1638 23.6119 14.2308 23.8797C14.281 24.1363 14.1471 24.393 13.9072 24.499C13.8179 24.5269 13.7287 24.5381 13.6394 24.5381H12.6072C12.8806 30.402 17.5784 35.0943 23.4424 35.3621V34.2574C23.5316 33.9617 23.8441 33.7998 24.1398 33.8891C24.3128 33.9449 24.4522 34.0788 24.508 34.2574V35.2003L24.5304 35.3398Z" fill="white"/>
<path d="M23.9724 26.9373C23.9277 26.8927 23.8943 26.8648 23.8664 26.8313L18.7445 21.715C18.5046 21.5253 18.4655 21.1738 18.6552 20.9283C18.6664 20.9171 18.6775 20.906 18.6887 20.8948C18.884 20.6828 19.2187 20.6716 19.4307 20.8669C19.4419 20.8781 19.4531 20.8836 19.4586 20.8948L20.8312 22.2673L23.9724 25.3695L24.7144 24.566L27.6938 21.3133L31.326 17.3463L35.0754 13.2622C35.226 13.1004 35.3655 12.9386 35.5217 12.7824C35.7281 12.5648 36.0685 12.5536 36.2917 12.7489C36.4981 12.9665 36.4981 13.3068 36.2917 13.5244L33.7363 16.3364L30.6118 19.7399L25.5234 25.2635L24.0505 26.8703L23.9724 26.9373Z" fill="white"/>
</svg>
