<svg width="48" height="48" viewBox="0 0 48 48" fill="none" xmlns="http://www.w3.org/2000/svg">
<rect width="48" height="48" rx="24" fill="#00569E"/>
<path d="M36.9198 26.265L36.8361 26.5774C36.5795 27.5594 35.8039 28.3182 34.822 28.5693C34.5542 28.653 34.4537 28.7646 34.4816 29.0324C34.4928 29.2165 34.4928 29.4062 34.4816 29.5903C34.4816 29.8804 34.3533 30.0088 34.0687 30.0143C33.7842 30.0199 33.5666 30.0143 33.3099 30.0143C33.0533 30.0143 32.8915 29.886 32.8915 29.5792C32.8803 29.395 32.8803 29.2053 32.8915 29.0212C32.8915 28.8259 32.8413 28.7646 32.6404 28.7478C32.0099 28.7032 31.3962 28.547 30.8215 28.2847C30.4477 28.1118 30.4198 28.0337 30.5537 27.6431C30.6374 27.4088 30.7155 27.1689 30.7992 26.9289C30.8829 26.689 31.0112 26.5886 31.2846 26.7392C31.9765 27.1298 32.7743 27.3083 33.5666 27.247C33.8567 27.2246 34.1469 27.1521 34.4091 27.0238C34.9447 26.7727 35.1735 26.1311 34.9168 25.5955C34.8443 25.4448 34.7438 25.3165 34.6155 25.2161C34.264 24.9985 33.8902 24.8088 33.4996 24.6581C32.9417 24.4015 32.3838 24.2006 31.8928 23.8938C31.0949 23.4641 30.6263 22.5938 30.7099 21.6899C30.7769 20.7581 31.3627 19.9435 32.2275 19.592C32.3949 19.5084 32.5679 19.447 32.7464 19.3968C32.8636 19.38 32.9417 19.274 32.925 19.1568C32.925 19.1568 32.925 19.1513 32.925 19.1457V18.3646C32.9026 18.1693 33.0421 17.9963 33.2318 17.974C33.2597 17.974 33.2876 17.974 33.3155 17.974H34.1245C34.3198 17.9573 34.4984 18.0968 34.5151 18.292C34.5151 18.3144 34.5151 18.3367 34.5151 18.3646V19.1792C34.8387 19.2294 35.1456 19.2629 35.4413 19.3354C35.7426 19.4135 36.0327 19.5139 36.3228 19.6255C36.4846 19.6702 36.5851 19.8375 36.5404 19.9993C36.5348 20.0272 36.5237 20.0496 36.5069 20.0774C36.4009 20.3508 36.3005 20.6354 36.1945 20.9032C36.0885 21.171 35.9825 21.2101 35.7314 21.0817C35.1232 20.7693 34.4314 20.6521 33.7507 20.7358C33.5108 20.7581 33.2765 20.8362 33.0645 20.9534C32.6237 21.1822 32.4507 21.7289 32.6795 22.1697C32.7408 22.2869 32.8301 22.3929 32.9361 22.4766C33.243 22.6998 33.5778 22.8895 33.9293 23.0345C34.4872 23.2912 35.0451 23.4865 35.5584 23.771C36.267 24.1281 36.758 24.8088 36.8752 25.5955C36.8863 25.6345 36.8975 25.6736 36.9198 25.7071V26.265Z" fill="white"/>
<path d="M11.082 22.5827C11.2048 22.499 11.3443 22.4376 11.4893 22.3986C11.7292 22.3818 11.9692 22.3818 12.2091 22.3986C12.2425 22.0638 12.2481 21.7513 12.3039 21.4501C12.6219 19.9938 14.0001 19.023 15.4786 19.2183C15.8915 19.302 16.2876 19.4303 16.6726 19.5977C16.9404 19.7093 16.9627 19.8878 16.7953 20.1222C16.6279 20.3565 16.4215 20.602 16.2374 20.8475C16.1314 21.026 15.9026 21.0874 15.7185 20.987C15.7185 20.987 15.7185 20.987 15.7129 20.987C15.0825 20.6745 14.3181 20.9368 14.0112 21.5672C13.8829 21.8295 13.8438 22.1307 13.9108 22.4153H15.5288C15.8245 22.4153 15.9026 22.499 15.9026 22.7947C15.9026 23.0904 15.8301 23.202 15.54 23.202H14.0726C14.1228 23.4698 14.1619 23.7097 14.2232 23.9385C14.2232 23.9831 14.3516 24.0277 14.4241 24.0277H15.54C15.8078 24.0277 15.8859 24.1226 15.8859 24.4071C15.8859 24.6917 15.8134 24.8089 15.5455 24.8144H14.3237C14.2734 25.6681 14.0112 26.4994 13.5537 27.2247H17.052C17.4314 27.2247 17.5318 27.3252 17.5318 27.699V28.3908C17.5318 28.72 17.4202 28.826 17.091 28.826H11.5674C11.3722 28.8539 11.1769 28.7535 11.082 28.5805V27.381C11.188 27.2415 11.2996 27.1076 11.4224 26.9848C11.8408 26.6054 12.1812 26.1479 12.4211 25.6346C12.5271 25.3612 12.6164 25.0822 12.6889 24.7977H11.4893C11.3443 24.7586 11.2048 24.6973 11.082 24.6136V24.2119C11.2048 24.1282 11.3387 24.0668 11.4837 24.0277H12.5996C12.5327 23.7711 12.4936 23.5591 12.4211 23.3526C12.382 23.2745 12.3095 23.2187 12.2258 23.2076H11.4949C11.3554 23.1629 11.2159 23.1016 11.0932 23.0234L11.082 22.5883V22.5827Z" fill="white"/>
<path d="M22.5411 17.5225C22.7197 18.6272 23.5343 19.5255 24.6167 19.8101C25.3755 19.9719 26.1677 19.7822 26.7703 19.2856C27.0437 19.0792 27.1162 19.0903 27.3282 19.347L27.8862 20.0109C28.1038 20.2787 28.0982 20.3624 27.8416 20.5689C26.3295 21.8577 24.1089 21.8744 22.5802 20.6079C21.7042 19.8826 21.1072 18.8727 20.9064 17.7513C20.8673 17.5504 20.7892 17.4946 20.6107 17.5169H20.4321C20.0416 17.5169 19.9467 17.4109 19.9858 17.0148C19.9858 16.8586 20.1029 16.7358 20.2592 16.7302C20.2647 16.7302 20.2703 16.7302 20.2759 16.7302H20.778L20.8506 15.9045H20.2926C20.0471 15.9045 19.9746 15.7985 19.9746 15.5028C19.9746 15.2071 20.0527 15.129 20.2926 15.1234C20.46 15.1122 20.633 15.1122 20.8004 15.1234C20.9845 15.1234 21.0626 15.0676 21.124 14.9002C21.4699 13.8959 22.1562 13.0478 23.06 12.4955C24.5386 11.5916 26.43 11.7255 27.769 12.8303C27.942 12.9363 28.0034 13.1594 27.8973 13.338C27.8806 13.3715 27.8527 13.3994 27.8248 13.4217L27.2669 14.1303C27.0883 14.3478 27.0214 14.3534 26.787 14.1693C25.7046 13.2654 24.0978 13.4049 23.1939 14.4873C23.0823 14.6212 22.9819 14.7719 22.8982 14.9281C22.8703 14.9783 22.848 15.0285 22.8034 15.1234H25.2248C25.5205 15.1234 25.5931 15.2127 25.5931 15.5251C25.5931 15.8375 25.5094 15.9045 25.2248 15.9045H22.742C22.5634 15.9045 22.4742 15.9491 22.4686 16.1333C22.463 16.3174 22.4295 16.5127 22.4016 16.7358H24.4772C24.7171 16.7358 24.7952 16.8418 24.7952 17.1152C24.7952 17.3886 24.7283 17.5169 24.4772 17.5225H22.5411Z" fill="white"/>
<path d="M24.8465 32.0787H26.0405C26.3362 32.0787 26.4143 32.168 26.4143 32.4804C26.4143 32.7929 26.3306 32.8654 26.0461 32.8654H24.8186V33.6968H26.007C26.3362 33.6968 26.4143 33.7749 26.4143 34.0873C26.4143 34.3998 26.3362 34.4779 26.0014 34.4834H24.7963V35.6384C24.7963 36.0122 24.6736 36.0959 24.3444 36.0959H23.6135C23.4126 36.1238 23.2341 35.9843 23.2062 35.7834C23.2062 35.75 23.2062 35.7221 23.2062 35.6886V34.4834H22.001C21.6718 34.4834 21.5937 34.4053 21.5881 34.0929C21.5826 33.7804 21.6663 33.6968 21.9954 33.6968H23.1894V32.8487H22.0122C21.6328 32.8487 21.4542 32.5586 21.6272 32.2294C21.6997 32.1345 21.8113 32.0787 21.9341 32.0732H23.1504L22.9942 31.8221L20.1375 27.6989C19.8976 27.353 19.9143 27.2637 20.2435 27.0182L20.8015 26.6109C21.1864 26.332 21.2701 26.3431 21.5435 26.7448L23.8311 30.0925C23.8813 30.1706 23.9371 30.2431 24.0096 30.3491L24.1826 30.1148L26.4869 26.7114C26.7435 26.332 26.8384 26.3152 27.2122 26.5942L27.798 27.0294C28.077 27.2358 28.0937 27.3474 27.8984 27.6375L25.0697 31.7328L24.8465 32.0787Z" fill="white"/>
<path d="M20.3542 34.4501C17.9829 33.669 15.9353 32.1235 14.5293 30.0591C14.9924 30.0591 15.4108 30.0926 15.8181 30.0591C16.2589 30.0089 16.6941 30.1875 16.9675 30.5334C17.8602 31.4763 18.9482 32.2072 20.1533 32.687C20.2928 32.7205 20.3877 32.8544 20.3653 32.9939C20.3486 33.4626 20.3542 33.9647 20.3542 34.4501Z" fill="white"/>
<path d="M27.6465 34.4503V32.9048C27.6744 32.81 27.7469 32.7318 27.8362 32.6928C29.0079 32.2074 30.0791 31.5044 30.9885 30.6173C31.1392 30.4666 31.301 30.3383 31.446 30.21L32.5229 31.3258C31.195 32.7765 29.5156 33.8533 27.6465 34.4503Z" fill="white"/>
<path d="M27.748 15.5137L28.7133 14.2695C30.0858 14.8777 31.3244 15.7536 32.351 16.8472L31.2686 17.9296C30.7107 17.4944 30.2086 17.0034 29.5948 16.6017C28.9811 16.2 28.4008 15.882 27.748 15.5137Z" fill="white"/>
<path d="M18.9945 14.4033C18.9387 15.0394 18.8941 15.6196 18.8383 16.2055C18.8216 16.2724 18.7714 16.3338 18.71 16.3673C17.9735 16.8415 17.2928 17.3995 16.6958 18.0411C16.6177 18.1136 16.5117 18.1415 16.4113 18.1248C15.9147 18.0243 15.4182 17.896 14.877 17.7677C15.9649 16.3394 17.3765 15.1844 18.9945 14.4033Z" fill="white"/>
</svg>
