<svg width="97" height="96" viewBox="0 0 97 96" fill="none" xmlns="http://www.w3.org/2000/svg">
<g id="Dollar Minimalistic">
<path id="Vector (Stroke)" fill-rule="evenodd" clip-rule="evenodd" d="M48.5001 18.3996C32.1525 18.3996 18.9001 31.652 18.9001 47.9996C18.9001 64.3472 32.1525 77.5996 48.5001 77.5996C64.8477 77.5996 78.1001 64.3472 78.1001 47.9996C78.1001 31.652 64.8477 18.3996 48.5001 18.3996ZM14.1001 47.9996C14.1001 29.001 29.5015 13.5996 48.5001 13.5996C67.4987 13.5996 82.9001 29.001 82.9001 47.9996C82.9001 66.9982 67.4987 82.3996 48.5001 82.3996C29.5015 82.3996 14.1001 66.9982 14.1001 47.9996ZM48.5001 26.3996C49.8256 26.3996 50.9001 27.4741 50.9001 28.7996V29.8132C56.1175 30.7474 60.5001 34.6672 60.5001 39.9996C60.5001 41.3251 59.4256 42.3996 58.1001 42.3996C56.7746 42.3996 55.7001 41.3251 55.7001 39.9996C55.7001 37.2979 52.9049 34.3996 48.5001 34.3996C44.0953 34.3996 41.3001 37.2979 41.3001 39.9996C41.3001 42.7013 44.0953 45.5996 48.5001 45.5996C54.6992 45.5996 60.5001 49.8647 60.5001 55.9996C60.5001 61.3321 56.1175 65.2519 50.9001 66.1861V67.1996C50.9001 68.5251 49.8256 69.5996 48.5001 69.5996C47.1746 69.5996 46.1001 68.5251 46.1001 67.1996V66.1861C40.8827 65.2519 36.5001 61.3321 36.5001 55.9996C36.5001 54.6741 37.5746 53.5996 38.9001 53.5996C40.2256 53.5996 41.3001 54.6741 41.3001 55.9996C41.3001 58.7013 44.0953 61.5996 48.5001 61.5996C52.9049 61.5996 55.7001 58.7013 55.7001 55.9996C55.7001 53.298 52.9049 50.3996 48.5001 50.3996C42.301 50.3996 36.5001 46.1345 36.5001 39.9996C36.5001 34.6672 40.8827 30.7474 46.1001 29.8132V28.7996C46.1001 27.4741 47.1746 26.3996 48.5001 26.3996Z" fill="#F4AE3C"/>
</g>
</svg>
