<svg width="97" height="96" viewBox="0 0 97 96" fill="none" xmlns="http://www.w3.org/2000/svg">
<g id="Eye">
<g id="Vector">
<path fill-rule="evenodd" clip-rule="evenodd" d="M48.5001 36C41.8727 36 36.5001 41.3726 36.5001 48C36.5001 54.6274 41.8727 60 48.5001 60C55.1275 60 60.5001 54.6274 60.5001 48C60.5001 41.3726 55.1275 36 48.5001 36ZM41.3001 48C41.3001 44.0236 44.5236 40.8 48.5001 40.8C52.4765 40.8 55.7001 44.0236 55.7001 48C55.7001 51.9764 52.4765 55.2 48.5001 55.2C44.5236 55.2 41.3001 51.9764 41.3001 48Z" fill="#F49C0E"/>
<path fill-rule="evenodd" clip-rule="evenodd" d="M48.5001 20C34.0549 20 24.325 28.6534 18.6779 35.99L18.5761 36.1222C17.2989 37.7809 16.1227 39.3085 15.3247 41.1149C14.4702 43.0492 14.1001 45.1574 14.1001 48C14.1001 50.8426 14.4702 52.9508 15.3247 54.8851C16.1227 56.6915 17.2989 58.2191 18.5761 59.8778L18.6779 60.01C24.325 67.3466 34.0549 76 48.5001 76C62.9453 76 72.6752 67.3466 78.3223 60.01L78.4241 59.8778C79.7012 58.2192 80.8775 56.6915 81.6755 54.8851C82.53 52.9508 82.9001 50.8426 82.9001 48C82.9001 45.1574 82.53 43.0492 81.6755 41.1149C80.8775 39.3085 79.7012 37.7809 78.4241 36.1222L78.3223 35.99C72.6752 28.6534 62.9453 20 48.5001 20ZM22.4816 38.9178C27.6957 32.1437 36.1812 24.8 48.5001 24.8C60.819 24.8 69.3045 32.1437 74.5186 38.9178C75.9221 40.7411 76.7441 41.8306 77.2849 43.0546C77.7902 44.1985 78.1001 45.5966 78.1001 48C78.1001 50.4034 77.7902 51.8015 77.2849 52.9454C76.7441 54.1694 75.9221 55.2589 74.5186 57.0822C69.3045 63.8563 60.819 71.2 48.5001 71.2C36.1812 71.2 27.6957 63.8563 22.4816 57.0822C21.0781 55.2589 20.2561 54.1694 19.7153 52.9454C19.21 51.8015 18.9001 50.4034 18.9001 48C18.9001 45.5966 19.21 44.1985 19.7153 43.0546C20.2561 41.8306 21.0781 40.7411 22.4816 38.9178Z" fill="#F49C0E"/>
</g>
</g>
</svg>
