<svg width="97" height="96" viewBox="0 0 97 96" fill="none" xmlns="http://www.w3.org/2000/svg">
<g id="Hand Money">
<path id="Vector" fill-rule="evenodd" clip-rule="evenodd" d="M55.9404 21.6003C55.6069 21.5999 55.2605 21.5998 54.9002 21.5998L42.1002 21.5998C41.7399 21.5998 41.3935 21.5999 41.06 21.6003C40.1055 26.3018 36.4022 30.0051 31.7007 30.9597C31.7003 31.2931 31.7002 31.6395 31.7002 31.9998C31.7002 32.3601 31.7003 32.7065 31.7007 33.04C36.4022 33.9945 40.1055 37.6978 41.06 42.3993C41.3935 42.3997 41.7399 42.3998 42.1002 42.3998H54.9002C55.2605 42.3998 55.6069 42.3997 55.9403 42.3993C56.8949 37.6978 60.5982 33.9946 65.2997 33.04C65.3001 32.7066 65.3002 32.3601 65.3002 31.9998C65.3002 31.6395 65.3001 31.2931 65.2997 30.9597C60.5982 30.0051 56.8949 26.3018 55.9404 21.6003ZM57.8747 16.8103C56.9961 16.7997 56.0598 16.7998 55.0666 16.7998L41.9338 16.7998C40.9405 16.7998 40.0043 16.7997 39.1257 16.8103C39.0515 16.8033 38.9763 16.7998 38.9002 16.7998C38.7997 16.7998 38.7007 16.806 38.6035 16.818C37.1546 16.8437 35.8716 16.9058 34.7579 17.0555C32.7489 17.3256 30.9352 17.9198 29.4777 19.3773C28.0201 20.8348 27.426 22.6485 27.1559 24.6575C27.0062 25.7712 26.9441 27.0542 26.9184 28.5031C26.9064 28.6003 26.9002 28.6994 26.9002 28.7998C26.9002 28.8759 26.9037 28.9511 26.9107 29.0253C26.9001 29.9039 26.9002 30.8402 26.9002 31.8334V32.1662C26.9002 33.1595 26.9001 34.0957 26.9107 34.9743C26.9037 35.0485 26.9002 35.1238 26.9002 35.1998C26.9002 35.3003 26.9064 35.3993 26.9184 35.4965C26.9441 36.9454 27.0062 38.2284 27.1559 39.3421C27.426 41.3511 28.0201 43.1649 29.4777 44.6224C30.9352 46.0799 32.7489 46.674 34.7579 46.9441C35.8716 47.0938 37.1546 47.1559 38.6035 47.1817C38.7007 47.1936 38.7997 47.1998 38.9002 47.1998C38.9762 47.1998 39.0515 47.1963 39.1257 47.1894C40.0043 47.1999 40.9405 47.1999 41.9338 47.1998H55.0667C56.0599 47.1999 56.9961 47.1999 57.8747 47.1894C57.9489 47.1963 58.0241 47.1998 58.1002 47.1998C58.2007 47.1998 58.2997 47.1936 58.3969 47.1817C59.8458 47.1559 61.1288 47.0938 62.2425 46.9441C64.2515 46.674 66.0652 46.0799 67.5227 44.6224C68.9802 43.1648 69.5744 41.3511 69.8445 39.3421C69.9942 38.2284 70.0563 36.9454 70.082 35.4965C70.094 35.3993 70.1002 35.3003 70.1002 35.1998C70.1002 35.1238 70.0967 35.0485 70.0897 34.9743C70.1003 34.0957 70.1002 33.1595 70.1002 32.1662V31.8334C70.1002 30.8402 70.1003 29.9039 70.0897 29.0253C70.0967 28.9511 70.1002 28.8759 70.1002 28.7998C70.1002 28.6994 70.094 28.6003 70.082 28.5031C70.0563 27.0542 69.9942 25.7712 69.8445 24.6575C69.5744 22.6485 68.9802 20.8348 67.5227 19.3773C66.0652 17.9198 64.2515 17.3256 62.2425 17.0555C61.1288 16.9058 59.8458 16.8437 58.3969 16.818C58.2997 16.806 58.2007 16.7998 58.1002 16.7998C58.0241 16.7998 57.9489 16.8033 57.8747 16.8103ZM60.9613 21.7405C61.6903 23.6732 63.2269 25.2097 65.1595 25.9387C65.1387 25.7149 65.1147 25.5014 65.0873 25.2971C64.8887 23.8204 64.5456 23.1884 64.1286 22.7714C63.7116 22.3544 63.0796 22.0113 61.6029 21.8127C61.3986 21.7853 61.1851 21.7613 60.9613 21.7405ZM65.1595 38.0609C63.2269 38.7899 61.6903 40.3265 60.9613 42.2591C61.1851 42.2383 61.3986 42.2144 61.6029 42.1869C63.0796 41.9884 63.7116 41.6453 64.1286 41.2282C64.5456 40.8112 64.8887 40.1792 65.0873 38.7026C65.1148 38.4982 65.1387 38.2847 65.1595 38.0609ZM36.0391 42.2591C35.3101 40.3265 33.7735 38.7899 31.8409 38.0609C31.8617 38.2847 31.8856 38.4982 31.9131 38.7026C32.1116 40.1792 32.4548 40.8112 32.8718 41.2282C33.2888 41.6453 33.9208 41.9884 35.3975 42.1869C35.6018 42.2144 35.8153 42.2383 36.0391 42.2591ZM31.8409 25.9387C33.7735 25.2097 35.3101 23.6732 36.0391 21.7405C35.8153 21.7613 35.6018 21.7853 35.3974 21.8127C33.9208 22.0113 33.2888 22.3544 32.8718 22.7714C32.4548 23.1884 32.1116 23.8204 31.9131 25.2971C31.8856 25.5014 31.8617 25.7149 31.8409 25.9387ZM48.5002 31.1998C48.0584 31.1998 47.7002 31.558 47.7002 31.9998C47.7002 32.4416 48.0584 32.7998 48.5002 32.7998C48.942 32.7998 49.3002 32.4416 49.3002 31.9998C49.3002 31.558 48.942 31.1998 48.5002 31.1998ZM42.9002 31.9998C42.9002 28.907 45.4074 26.3998 48.5002 26.3998C51.593 26.3998 54.1002 28.907 54.1002 31.9998C54.1002 35.0926 51.593 37.5998 48.5002 37.5998C45.4074 37.5998 42.9002 35.0926 42.9002 31.9998ZM37.8887 55.8339C43.8593 54.6772 50.2508 54.9368 55.4226 58.0215C56.1491 58.4548 56.8299 58.9946 57.4241 59.662C58.6268 61.0129 59.248 62.692 59.2773 64.3755C59.8894 63.9807 60.5025 63.5423 61.1253 63.0718L66.9084 58.7032C69.803 56.5166 74.0098 56.5162 76.9049 58.7022C79.5799 60.722 80.6464 64.347 78.7314 67.4165C77.3704 69.5982 75.3206 72.6157 73.2348 74.5475C71.1262 76.5005 68.1254 78.1424 65.8554 79.2381C63.0986 80.5687 60.1212 81.3043 57.2259 81.773C51.3085 82.7309 45.1512 82.5843 39.3002 81.3789C36.3101 80.7629 33.2027 80.4426 30.132 80.4426H22.9002C21.5747 80.4426 20.5002 79.3681 20.5002 78.0426C20.5002 76.7172 21.5747 75.6427 22.9002 75.6427H30.132C33.5307 75.6427 36.9625 75.9965 40.2687 76.6776C45.5553 77.7667 51.1245 77.8982 56.4589 77.0347C59.1115 76.6053 61.5885 75.9677 63.7689 74.9153C65.9558 73.8597 68.4146 72.4695 69.9731 71.0259C71.5492 69.5662 73.3131 67.033 74.6589 64.8759C75.0651 64.2248 75.0089 63.2853 74.0125 62.5329C72.8293 61.6395 70.9844 61.6398 69.8016 62.5333L64.0186 66.9018C61.71 68.6457 58.8685 70.5114 55.3441 71.0736C54.9884 71.1303 54.618 71.1822 54.2337 71.228C54.0504 71.2611 53.8596 71.283 53.6624 71.2904C51.8631 71.4692 49.7793 71.5107 47.4802 71.2936C46.1606 71.169 45.1919 69.9982 45.3165 68.6786C45.4411 67.359 46.6119 66.3903 47.9315 66.5149C49.9393 66.7045 51.7406 66.6626 53.2689 66.5057C53.2999 66.5025 53.3308 66.4993 53.3616 66.496C53.4254 66.4589 53.5229 66.3914 53.6508 66.2797C54.6732 65.3874 54.7644 63.8932 53.839 62.8537C53.6044 62.5902 53.3156 62.3537 52.9638 62.1439C49.1841 59.8895 44.1361 59.5128 38.8017 60.5463C33.4976 61.5739 28.2279 63.9411 24.2885 66.7348C23.2073 67.5016 21.7093 67.2467 20.9425 66.1655C20.1758 65.0843 20.4307 63.5862 21.5119 62.8195C25.9866 59.6461 31.8877 56.9966 37.8887 55.8339Z" fill="#F49C0E"/>
</g>
</svg>
