<svg width="48" height="48" viewBox="0 0 48 48" fill="none" xmlns="http://www.w3.org/2000/svg">
<rect width="48" height="48" rx="24" fill="#00569E"/>
<path d="M21.4628 10.04L21.8701 10.0735C23.4379 10.1795 24.961 10.6259 26.3336 11.3847C28.8108 12.7516 30.6743 15.0169 31.5391 17.7173C31.7791 18.4649 31.9297 19.2293 32.0022 20.0104C32.0748 20.7246 32.0748 21.4499 32.0022 22.1641C31.8572 23.637 31.4108 25.0653 30.6855 26.3598C30.4623 26.7503 30.2001 27.1241 29.9602 27.4756V27.5147L30.0271 27.5872C30.3954 27.9722 30.7636 28.3628 31.143 28.7477C31.1709 28.7756 31.2044 28.7868 31.2434 28.7924C31.846 28.8091 32.4151 29.0602 32.828 29.4954C34.3121 30.9907 35.8018 32.4748 37.2915 33.9589C37.6486 34.2992 37.8773 34.7512 37.9443 35.2422C38.0447 35.9005 37.8439 36.5645 37.3863 37.0499C37.1185 37.3902 36.767 37.6469 36.3653 37.8031C35.5675 38.1267 34.658 37.937 34.0555 37.3288C33.3748 36.6872 32.7052 35.9954 32.0525 35.3258L29.5027 32.7816C29.0675 32.3743 28.8164 31.8108 28.7997 31.2194C28.7997 31.1915 28.7885 31.158 28.7718 31.1357L27.5387 29.9585L27.0924 30.2653C25.8649 31.0743 24.4812 31.6323 23.0362 31.9001C22.0765 32.0786 21.0945 32.1289 20.1181 32.0396C15.0241 31.61 10.8954 27.7267 10.1478 22.6662C10.0194 21.7902 9.99711 20.8975 10.0808 20.016C10.449 16.1774 12.798 12.813 16.2684 11.1336C17.2447 10.6538 18.2825 10.3302 19.3593 10.1739C19.7443 10.1126 20.1293 10.0958 20.5143 10.0568H20.6203L21.4628 10.04ZM10.9121 21.0649C10.9177 26.661 15.4593 31.1915 21.0555 31.1859C26.6516 31.1804 31.1821 26.6387 31.1765 21.0426C31.1709 15.5134 26.7297 11.0109 21.2005 10.9216C15.6044 10.8379 11.0014 15.3014 10.9121 20.8975C10.9121 20.9533 10.9121 21.0091 10.9121 21.0649ZM37.0516 35.5713C37.0516 35.2143 36.9065 34.8739 36.6499 34.6228L33.7374 31.7104C33.1795 31.1525 32.6494 30.5945 32.1027 30.0756C31.7623 29.7297 31.2602 29.607 30.7971 29.752C30.5293 29.8357 30.2949 29.9975 30.1108 30.2095C29.5808 30.7173 29.564 31.5598 30.0773 32.0898C30.0885 32.101 30.0997 32.1121 30.1108 32.1233L34.6301 36.637C34.9649 36.9829 35.4615 37.1168 35.9245 36.9885C36.2203 36.9048 36.4769 36.7374 36.6722 36.5031C36.9177 36.252 37.0516 35.9173 37.0516 35.5713ZM29.0619 30.1928C29.313 29.7186 29.7035 29.328 30.1778 29.0769L29.3576 28.2735L28.2417 29.3894L29.0619 30.1928Z" fill="white"/>
<path d="M20.0515 21.4162C19.5158 21.2711 19.0527 20.9252 18.757 20.4565C18.5394 20.1273 18.4223 19.7368 18.4167 19.3406C18.3944 18.9557 18.3944 18.5763 18.4167 18.1913C18.5339 17.0754 19.4768 16.2273 20.5982 16.2273V15.3458C20.5703 15.1059 20.7433 14.8883 20.9888 14.8604C21.2287 14.8325 21.4463 15.0055 21.4742 15.251C21.4742 15.2844 21.4742 15.3179 21.4742 15.3514V16.1771C21.6304 16.1771 21.7867 16.2106 21.9429 16.2441C22.3725 16.3389 22.7575 16.5621 23.0588 16.8801C23.1815 16.9973 23.2206 17.1758 23.1592 17.3321C23.1145 17.4939 22.9751 17.611 22.8077 17.6278C22.6626 17.6501 22.5176 17.5999 22.4227 17.4883C22.2051 17.2595 21.915 17.1145 21.597 17.081H21.4575V19.2737C21.463 19.4355 21.3738 19.5917 21.2287 19.6643C21.0948 19.7535 20.9163 19.7535 20.7824 19.6643C20.6485 19.5806 20.5703 19.4299 20.5815 19.2737V17.0922C20.3416 17.0922 20.1073 17.1591 19.9064 17.2819C19.4991 17.5162 19.248 17.957 19.2592 18.4312V19.3016C19.2703 20.0325 19.8673 20.6239 20.5982 20.6239C20.7712 20.6351 20.9386 20.5625 21.0502 20.4342L25.9154 15.5634L26.0103 15.4909C25.815 15.3346 25.6364 15.184 25.4523 15.0445C22.1158 12.6007 17.4347 13.3261 14.9965 16.6625C14.7901 16.9415 14.606 17.2372 14.4386 17.5441C13.9978 18.3531 13.7133 19.2402 13.6073 20.1552C13.5738 20.4509 13.5626 20.7522 13.5515 21.0479C13.5626 21.299 13.3729 21.511 13.1219 21.5222C13.1219 21.5222 13.1163 21.5222 13.1107 21.5222C12.8652 21.5222 12.6699 21.3269 12.6699 21.0814C12.6699 21.0703 12.6699 21.0591 12.6699 21.0479C12.6699 18.6934 13.6742 16.4449 15.4317 14.8771C16.4695 13.9231 17.736 13.2535 19.1141 12.9355C19.8952 12.7402 20.7042 12.6621 21.5133 12.7012C24.9111 12.9076 27.8514 15.1338 28.9618 18.3531C29.1626 18.9334 29.2909 19.5359 29.3579 20.1441C29.4193 20.7188 29.4193 21.2934 29.3579 21.8681C29.1068 24.4067 27.7175 26.6943 25.5751 28.078C24.6266 28.7029 23.5553 29.1213 22.4339 29.3054C21.9819 29.3836 21.5188 29.4226 21.0613 29.4282C20.8158 29.4449 20.6094 29.2664 20.5871 29.0209C20.5871 29.0097 20.5871 28.9986 20.5871 28.9874C20.5871 28.7419 20.7824 28.5466 21.0279 28.5466C21.039 28.5466 21.0446 28.5466 21.0558 28.5466C22.9193 28.5411 24.7158 27.8269 26.0772 26.5548C27.2489 25.4947 28.0467 24.0831 28.3424 22.5321C28.8055 20.2501 28.1695 17.8788 26.624 16.1325L22.0433 20.7132C22.233 20.7857 22.4227 20.875 22.6012 20.9698C23.2652 21.3548 23.6725 22.0634 23.6725 22.8278C23.6892 23.2127 23.6892 23.5977 23.6725 23.9827C23.5665 24.8531 22.9472 25.5728 22.1047 25.8072C21.9038 25.863 21.6974 25.8853 21.4798 25.9299V26.7668C21.5077 27.0067 21.3347 27.2243 21.0892 27.2522C20.8493 27.2801 20.6317 27.1072 20.6038 26.8617C20.6038 26.8282 20.6038 26.7947 20.6038 26.7612V25.9188C20.4141 25.8853 20.2356 25.8685 20.0459 25.8239C19.6107 25.7179 19.2201 25.478 18.93 25.1321C18.7738 24.9535 18.7905 24.6857 18.9635 24.5239C18.9635 24.5239 18.9635 24.5239 18.9746 24.5183C19.1532 24.3621 19.4266 24.3788 19.5884 24.5518C19.8394 24.8419 20.2077 25.0093 20.5927 25.0149H21.4798C22.2051 25.0149 22.7909 24.4235 22.7965 23.6982V22.811C22.7909 22.0857 22.2051 21.4999 21.4798 21.4887C21.3124 21.4776 21.145 21.5445 21.0334 21.6728L15.7721 26.9398C15.6047 27.1127 15.3201 27.1183 15.1472 26.9509C14.9742 26.7836 14.9686 26.499 15.136 26.326L16.5253 24.9256L19.9678 21.4831L20.0515 21.4162Z" fill="white"/>
<path d="M13.3896 23.542C13.1664 23.542 12.9823 23.3858 12.9488 23.1682C12.9154 22.9617 13.0381 22.7553 13.239 22.6939C13.5403 22.5991 13.8415 22.5209 14.154 22.4484C14.3827 22.3982 14.6115 22.5433 14.6617 22.772C14.7175 23.0008 14.5836 23.2351 14.3548 23.3021L13.49 23.5308C13.4566 23.542 13.4231 23.542 13.3896 23.542Z" fill="white"/>
<path d="M20.604 23.2464V22.8223C20.5985 22.5824 20.7882 22.3816 21.0281 22.376C21.0337 22.376 21.0392 22.376 21.0448 22.376C21.2903 22.376 21.4856 22.5768 21.48 22.8223V23.6927C21.5079 23.9326 21.3349 24.1502 21.0894 24.1781C20.8495 24.206 20.6319 24.0331 20.604 23.7876C20.604 23.7541 20.604 23.7206 20.604 23.6871C20.5985 23.5309 20.604 23.3858 20.604 23.2408V23.2464Z" fill="white"/>
<path d="M19.6604 27.86V28.0107C19.5878 28.2785 19.5209 28.5686 19.4428 28.8197C19.3981 29.0596 19.1694 29.2158 18.9295 29.1768C18.6895 29.1321 18.5333 28.9034 18.5724 28.6635C18.5724 28.6411 18.5835 28.6132 18.5891 28.5909C18.6617 28.312 18.7342 28.033 18.8123 27.754C18.8625 27.542 19.0689 27.3969 19.2865 27.4193C19.4986 27.4583 19.6548 27.6424 19.6548 27.86H19.6604Z" fill="white"/>
<path d="M17.9708 27.1582C17.954 27.2363 17.9261 27.3144 17.8927 27.3869C17.7532 27.638 17.6081 27.8835 17.4631 28.129C17.3403 28.341 17.0781 28.4135 16.8661 28.2908C16.654 28.1681 16.5815 27.9058 16.7043 27.6938C16.8493 27.4427 16.9888 27.1917 17.1395 26.9406C17.2343 26.762 17.4463 26.6728 17.6416 26.7342C17.8257 26.7955 17.9596 26.9629 17.9708 27.1582Z" fill="white"/>
<path d="M14.1934 25.4563C13.9981 25.4675 13.814 25.3392 13.7582 25.1495C13.6912 24.9709 13.7582 24.7701 13.92 24.6696C14.1989 24.4967 14.4779 24.3293 14.768 24.1731C14.9745 24.0782 15.2144 24.1563 15.326 24.3516C15.4432 24.5357 15.3929 24.7812 15.22 24.9095C15.008 25.0546 14.7848 25.1773 14.5616 25.3001C14.4723 25.3559 14.3775 25.4005 14.2826 25.4396C14.2547 25.4507 14.2268 25.4563 14.1934 25.4563Z" fill="white"/>
</svg>
