<svg width="48" height="48" viewBox="0 0 48 48" fill="none" xmlns="http://www.w3.org/2000/svg">
<rect width="48" height="48" rx="24" fill="#00569E"/>
<path d="M21.1652 32.726H11.7373C10.7918 32.7945 9.96809 32.084 9.89961 31.1376C9.8939 31.0548 9.8939 30.9711 9.89961 30.8884V13.016C9.82732 12.0705 10.5359 11.2449 11.4814 11.1726C11.567 11.166 11.6517 11.166 11.7373 11.1726H36.2497C37.1952 11.0965 38.0236 11.8004 38.0997 12.7459C38.1073 12.841 38.1074 12.937 38.0988 13.0331V30.8712C38.1777 31.8167 37.4758 32.6471 36.5303 32.726C36.4371 32.7336 36.3429 32.7336 36.2497 32.726H26.8389L27.5599 36.2349H29.4375C29.5393 36.2111 29.6448 36.2111 29.7466 36.2349C29.8436 36.2976 29.9701 36.4118 29.9701 36.5098C29.9701 36.6077 29.856 36.7333 29.7637 36.8018C29.6724 36.8702 29.5802 36.8018 29.4888 36.8018H18.3374C18.1491 36.8018 18.0168 36.699 18.0111 36.4983C18.0054 36.2976 18.1548 36.1892 18.3602 36.1835H20.4385L21.1652 32.726ZM23.9873 32.0963H36.1803C37.0848 32.0963 37.4568 31.7187 37.4568 30.8085V13.0626C37.4568 12.1866 37.0677 11.7918 36.186 11.7918H11.8172C10.9126 11.7918 10.5236 12.1752 10.5236 13.0683V30.8551C10.5236 31.714 10.9126 32.103 11.7772 32.103L23.9883 32.0973L23.9873 32.0963ZM26.9131 36.1892C26.6839 35.0782 26.467 33.9968 26.2321 32.9143C26.1959 32.8221 26.117 32.7536 26.0199 32.7308H21.9784C21.8795 32.7526 21.7996 32.824 21.7663 32.9201C21.5314 34.0025 21.3136 35.084 21.0853 36.1892H26.9131Z" fill="white"/>
<path d="M23.9934 12.6836H36.1465C36.6563 12.6836 36.7191 12.7235 36.7191 13.2277V29.3594C36.7191 29.932 36.6848 29.932 36.1179 29.932H11.8851C11.3125 29.932 11.3125 29.8921 11.3125 29.3594V13.3989C11.3125 12.922 11.5547 12.6836 12.0392 12.6836H23.9925H23.9934ZM11.9374 29.3138H36.0551V13.3304H11.9374V29.3138Z" fill="white"/>
<path d="M23.9982 31.3056H22.4183C22.1891 31.3056 21.9836 31.2714 21.9884 30.9908C21.9941 30.7102 22.1833 30.6816 22.4002 30.6816H25.5942C25.812 30.6816 26.0061 30.733 26.0118 30.9908C26.0175 31.2485 25.8111 31.3056 25.5828 31.3056C25.0502 31.2999 24.5232 31.3056 23.9972 31.3056H23.9982Z" fill="white"/>
<path d="M20.8848 17.9222H18.2862C17.7526 17.9403 17.277 17.5855 17.141 17.069C16.9146 16.4479 17.2352 15.7611 17.8563 15.5357C18.0123 15.4796 18.1778 15.4558 18.3433 15.4663H29.5461C30.2157 15.4434 30.7769 15.9685 30.8007 16.6381C30.8073 16.8255 30.7693 17.0129 30.6913 17.1831C30.5229 17.6606 30.0502 17.9602 29.5461 17.9098H27.0274C28.69 19.6533 28.6234 22.4145 26.879 24.0772C26.8048 24.1476 26.7278 24.216 26.6488 24.2817C24.7684 25.737 22.0652 25.3917 20.6099 23.5122C19.3125 21.8353 19.4285 19.464 20.8838 17.9222H20.8848ZM23.9475 17.2925C21.9177 17.2763 20.2599 18.9095 20.2437 20.9393C20.2275 22.9691 21.8607 24.6269 23.8905 24.6431C25.9202 24.6593 27.5781 23.0261 27.5943 20.9963C27.5943 20.9887 27.5943 20.9811 27.5943 20.9735C27.6038 18.9504 25.9706 17.302 23.9475 17.2925ZM23.9475 16.0788H18.3718C17.9076 16.0788 17.7193 16.2567 17.7193 16.6514C17.7193 17.0462 17.9029 17.2754 18.3775 17.2754H21.4517C21.6038 17.2716 21.7522 17.2316 21.8863 17.1612C23.1685 16.4678 24.7142 16.4678 25.9963 17.1612C26.0914 17.2212 26.1999 17.2583 26.3112 17.2697H29.6374C29.9056 17.2859 30.1358 17.0813 30.152 16.8131C30.1529 16.7979 30.1529 16.7817 30.152 16.7665C30.1919 16.2681 29.9979 16.0569 29.4938 16.0569L23.9466 16.0798L23.9475 16.0788Z" fill="white"/>
<path d="M29.7985 24.1217C29.7985 24.3852 29.6035 24.5507 29.4038 24.4537C29.0604 24.2901 28.7313 24.0989 28.4193 23.8811C28.3394 23.7764 28.3185 23.6385 28.3623 23.5149C28.4365 23.414 28.5592 23.3617 28.6828 23.3779C29.0328 23.5501 29.3734 23.7412 29.7015 23.9505C29.7586 23.9904 29.7814 24.0818 29.7985 24.1227V24.1217Z" fill="white"/>
<path d="M21.5768 25.588C21.5368 25.6907 21.5254 25.7535 21.4969 25.8058C21.3504 26.1007 21.182 26.3832 20.9928 26.6533C20.9186 26.7503 20.7179 26.7503 20.5752 26.7969C20.541 26.6533 20.4316 26.4764 20.4782 26.368C20.6161 26.0579 20.7845 25.7621 20.9823 25.4862C21.0803 25.393 21.2144 25.3474 21.3485 25.3607C21.4341 25.3721 21.5083 25.5157 21.5777 25.5899L21.5768 25.588Z" fill="white"/>
<path d="M26.6834 25.3237C26.7652 25.3646 26.8394 25.4217 26.9012 25.4892C27.0781 25.7641 27.2389 26.0618 27.3996 26.3424C27.4966 26.5203 27.4852 26.72 27.2855 26.7837C27.1371 26.8075 26.9858 26.7581 26.8793 26.6515C26.6881 26.3814 26.5198 26.096 26.3752 25.7983C26.2858 25.6499 26.3333 25.4559 26.4817 25.3665C26.5426 25.3294 26.6139 25.3151 26.6843 25.3237H26.6834Z" fill="white"/>
<path d="M24.2443 26.8808C24.27 27.0539 24.27 27.2289 24.2443 27.402C24.2044 27.5162 24.0493 27.6655 23.9466 27.6655C23.8096 27.6351 23.6993 27.5352 23.6546 27.402C23.6203 27.0444 23.6203 26.6839 23.6546 26.3253C23.6974 26.1997 23.8011 26.1056 23.9295 26.0732C24.0664 26.1037 24.1806 26.1969 24.2386 26.3253C24.269 26.5089 24.2709 26.6963 24.2443 26.8808Z" fill="white"/>
<path d="M19.5797 23.7273C19.5312 23.8072 19.4684 23.8795 19.3962 23.9394C19.127 24.1116 18.8235 24.2656 18.5715 24.4207C18.4402 24.5253 18.249 24.5034 18.1454 24.3722C18.133 24.357 18.1225 24.3408 18.114 24.3237C18.0284 24.1762 18.0788 23.987 18.2262 23.9014C18.2376 23.8947 18.25 23.888 18.2633 23.8833C18.5496 23.7178 18.8359 23.5456 19.1222 23.3972C19.2754 23.3154 19.4665 23.3744 19.5483 23.5275C19.5807 23.5894 19.5921 23.6598 19.5807 23.7292L19.5797 23.7273Z" fill="white"/>
<path d="M24.2522 18.7808H25.0939C25.3004 18.7808 25.443 18.8664 25.4487 19.0842C25.4563 19.2516 25.327 19.3934 25.1596 19.4019C25.1415 19.4029 25.1234 19.4019 25.1054 19.4H23.7718C23.3371 19.4 23.0623 19.6235 23.0508 19.9726C23.0195 20.316 23.2725 20.6194 23.6158 20.6498C23.6605 20.6537 23.7053 20.6527 23.749 20.6479H24.1609C24.8495 20.627 25.425 21.1692 25.4459 21.8578C25.4649 22.4827 25.0179 23.0249 24.4015 23.1267H24.2579V23.5214C24.2579 23.7735 24.3663 24.094 23.9602 24.1568C23.7138 24.1568 23.6396 24.0141 23.6396 23.51V23.1096H22.8321C22.6086 23.1096 22.4316 23.0525 22.4316 22.7947C22.4316 22.537 22.6086 22.4913 22.8207 22.4913H24.0914C24.5432 22.4913 24.8238 22.2621 24.8295 21.8845C24.8352 21.5068 24.5546 21.2491 24.0857 21.2434C23.8698 21.251 23.6529 21.2415 23.4389 21.2148C22.8625 21.1026 22.4459 20.5994 22.4431 20.0126C22.4592 19.3477 22.9814 18.8055 23.6453 18.7646V18.1007C23.6453 17.8829 23.7309 17.7288 23.9659 17.7345C24.2008 17.7402 24.2693 17.8896 24.2693 18.0893L24.2522 18.7818V18.7808Z" fill="white"/>
</svg>
