<svg width="878" height="81" viewBox="0 0 878 81" fill="none" xmlns="http://www.w3.org/2000/svg">
<g clip-path="url(#clip0_218_1658)">
<path d="M763.414 66.2412H785.429" stroke="#F49C0E" stroke-width="2.5" stroke-linecap="round" stroke-linejoin="round"/>
<path d="M752.256 43.8516H781.715" stroke="#F49C0E" stroke-width="2.5" stroke-linecap="round" stroke-linejoin="round"/>
<path d="M791.384 17.7235C791.384 24.9304 785.564 30.7653 778.376 30.7653C771.188 30.7653 765.369 24.9304 765.369 17.7235C765.369 10.5165 771.203 4.68164 778.376 4.68164C785.549 4.68164 791.384 10.5165 791.384 17.7235Z" fill="#6CAA00"/>
<path d="M772.241 17.3608L776.752 21.8839L784.511 14.1191" stroke="white" stroke-width="2.5" stroke-linecap="round" stroke-linejoin="round"/>
<path d="M539.354 66.2412H561.369" stroke="#F49C0E" stroke-width="2.5" stroke-linecap="round" stroke-linejoin="round"/>
<path d="M528.195 43.8516H557.654" stroke="#F49C0E" stroke-width="2.5" stroke-linecap="round" stroke-linejoin="round"/>
<path d="M567.323 17.7235C567.323 24.9304 561.504 30.7653 554.316 30.7653C547.128 30.7653 541.308 24.9304 541.308 17.7235C541.308 10.5165 547.143 4.68164 554.316 4.68164C561.489 4.68164 567.323 10.5165 567.323 17.7235Z" fill="#6CAA00"/>
<path d="M548.181 17.3608L552.692 21.8839L560.451 14.1191" stroke="white" stroke-width="2.5" stroke-linecap="round" stroke-linejoin="round"/>
<path d="M261.158 66.2412H283.188" stroke="#F49C0E" stroke-width="2.5" stroke-linecap="round" stroke-linejoin="round"/>
<path d="M250 43.8516H279.459" stroke="#F49C0E" stroke-width="2.5" stroke-linecap="round" stroke-linejoin="round"/>
<path d="M289.128 17.7235C289.128 24.9304 283.308 30.7653 276.12 30.7653C268.932 30.7653 263.113 24.9304 263.113 17.7235C263.113 10.5165 268.947 4.68164 276.12 4.68164C283.293 4.68164 289.128 10.5165 289.128 17.7235Z" fill="#6CAA00"/>
<path d="M269.985 17.3608L274.496 21.8839L282.256 14.1191" stroke="white" stroke-width="2.5" stroke-linecap="round" stroke-linejoin="round"/>
<path d="M24.1953 55.0391H38.7818" stroke="#F49C0E" stroke-width="2.5" stroke-linecap="round" stroke-linejoin="round"/>
<path d="M133.97 55.0391H279.579H272.316H286.902H133.97Z" stroke="#F49C0E" stroke-width="2.5" stroke-linecap="round" stroke-linejoin="round"/>
<path d="M678.331 55.0391H780.135H774.571H789.158" stroke="#F49C0E" stroke-width="2.5" stroke-linecap="round" stroke-linejoin="round"/>
<path d="M13.0376 66.2412H35.0677" stroke="#F49C0E" stroke-width="2.5" stroke-linecap="round" stroke-linejoin="round"/>
<path d="M1.87988 43.8516H31.3385" stroke="#F49C0E" stroke-width="2.5" stroke-linecap="round" stroke-linejoin="round"/>
<path d="M41.0077 17.7235C41.0077 24.9304 35.1882 30.7653 28.0002 30.7653C20.8122 30.7653 14.9927 24.9304 14.9927 17.7235C14.9927 10.5165 20.8122 4.68164 28.0002 4.68164C35.1882 4.68164 41.0077 10.5165 41.0077 17.7235Z" fill="#6CAA00"/>
<path d="M21.8647 17.3608L26.376 21.8839L34.1354 14.1191" stroke="white" stroke-width="2.5" stroke-linecap="round" stroke-linejoin="round"/>
<path d="M382.09 55.0391H565.293H565.098H550.511" stroke="#F49C0E" stroke-width="2.5" stroke-linecap="round" stroke-linejoin="round"/>
<path d="M867.97 52.8231H812.165C811.338 52.8231 810.662 52.1446 810.662 51.3153C810.662 50.4861 811.338 49.8076 812.165 49.8076H867.97C868.797 49.8076 869.474 50.4861 869.474 51.3153C869.474 52.1446 868.797 52.8231 867.97 52.8231Z" fill="#00569E"/>
<path d="M870.812 64.2366H867.338C866.511 64.2366 865.835 63.5581 865.835 62.7289C865.835 61.8996 866.511 61.2211 867.338 61.2211H870.812C873.113 61.2211 874.992 59.3365 874.992 57.0296V10.456C874.992 8.14914 873.113 6.26448 870.812 6.26448H809.323C807.023 6.26448 805.143 8.14914 805.143 10.456V57.0296C805.143 59.3365 807.023 61.2211 809.323 61.2211H812.932C813.759 61.2211 814.436 61.8996 814.436 62.7289C814.436 63.5581 813.759 64.2366 812.932 64.2366H809.323C805.353 64.2366 802.135 60.995 802.135 57.0296V10.456C802.135 6.47556 805.368 3.24902 809.323 3.24902H870.812C874.782 3.24902 878 6.49064 878 10.456V57.0296C878 61.01 874.782 64.2366 870.812 64.2366Z" fill="#00569E"/>
<path d="M841.76 44.2745H813.805C811.805 44.2745 810.181 42.6462 810.181 40.6409V16.4871C810.181 14.4819 811.805 12.8535 813.805 12.8535H841.76C843.76 12.8535 845.384 14.4819 845.384 16.4871V40.6409C845.384 42.6462 843.76 44.2745 841.76 44.2745ZM813.805 15.884C813.474 15.884 813.188 16.1705 813.188 16.5022V40.656C813.188 40.9877 813.474 41.2742 813.805 41.2742H841.76C842.09 41.2742 842.376 40.9877 842.376 40.656V16.4871C842.376 16.1554 842.09 15.869 841.76 15.869H813.805V15.884Z" fill="#00569E"/>
<path d="M854.361 32.8309H852.466C851.639 32.8309 850.962 32.1524 850.962 31.3232C850.962 30.4939 851.639 29.8154 852.466 29.8154H854.361C855.188 29.8154 855.865 30.4939 855.865 31.3232C855.865 32.1524 855.188 32.8309 854.361 32.8309Z" fill="#00569E"/>
<path d="M860.045 32.8309H858.15C857.323 32.8309 856.646 32.1524 856.646 31.3232C856.646 30.4939 857.323 29.8154 858.15 29.8154H860.045C860.872 29.8154 861.549 30.4939 861.549 31.3232C861.549 32.1524 860.872 32.8309 860.045 32.8309Z" fill="#00569E"/>
<path d="M865.73 32.8309H863.835C863.008 32.8309 862.331 32.1524 862.331 31.3232C862.331 30.4939 863.008 29.8154 863.835 29.8154H865.73C866.557 29.8154 867.233 30.4939 867.233 31.3232C867.233 32.1524 866.557 32.8309 865.73 32.8309Z" fill="#00569E"/>
<path d="M854.361 36.6453H852.466C851.639 36.6453 850.962 35.9669 850.962 35.1376C850.962 34.3084 851.639 33.6299 852.466 33.6299H854.361C855.188 33.6299 855.865 34.3084 855.865 35.1376C855.865 35.9669 855.188 36.6453 854.361 36.6453Z" fill="#00569E"/>
<path d="M860.045 36.6453H858.15C857.323 36.6453 856.646 35.9669 856.646 35.1376C856.646 34.3084 857.323 33.6299 858.15 33.6299H860.045C860.872 33.6299 861.549 34.3084 861.549 35.1376C861.549 35.9669 860.872 36.6453 860.045 36.6453Z" fill="#00569E"/>
<path d="M865.73 36.6453H863.835C863.008 36.6453 862.331 35.9669 862.331 35.1376C862.331 34.3084 863.008 33.6299 863.835 33.6299H865.73C866.557 33.6299 867.233 34.3084 867.233 35.1376C867.233 35.9669 866.557 36.6453 865.73 36.6453Z" fill="#00569E"/>
<path d="M854.361 40.4442H852.466C851.639 40.4442 850.962 39.7657 850.962 38.9364C850.962 38.1072 851.639 37.4287 852.466 37.4287H854.361C855.188 37.4287 855.865 38.1072 855.865 38.9364C855.865 39.7657 855.188 40.4442 854.361 40.4442Z" fill="#00569E"/>
<path d="M860.045 40.4442H858.15C857.323 40.4442 856.646 39.7657 856.646 38.9364C856.646 38.1072 857.323 37.4287 858.15 37.4287H860.045C860.872 37.4287 861.549 38.1072 861.549 38.9364C861.549 39.7657 860.872 40.4442 860.045 40.4442Z" fill="#00569E"/>
<path d="M865.73 40.4442H863.835C863.008 40.4442 862.331 39.7657 862.331 38.9364C862.331 38.1072 863.008 37.4287 863.835 37.4287H865.73C866.557 37.4287 867.233 38.1072 867.233 38.9364C867.233 39.7657 866.557 40.4442 865.73 40.4442Z" fill="#00569E"/>
<path d="M854.361 44.244H852.466C851.639 44.244 850.962 43.5655 850.962 42.7362C850.962 41.907 851.639 41.2285 852.466 41.2285H854.361C855.188 41.2285 855.865 41.907 855.865 42.7362C855.865 43.5655 855.188 44.244 854.361 44.244Z" fill="#00569E"/>
<path d="M860.045 44.244H858.15C857.323 44.244 856.646 43.5655 856.646 42.7362C856.646 41.907 857.323 41.2285 858.15 41.2285H860.045C860.872 41.2285 861.549 41.907 861.549 42.7362C861.549 43.5655 860.872 44.244 860.045 44.244Z" fill="#00569E"/>
<path d="M865.73 44.244H863.835C863.008 44.244 862.331 43.5655 862.331 42.7362C862.331 41.907 863.008 41.2285 863.835 41.2285H865.73C866.557 41.2285 867.233 41.907 867.233 42.7362C867.233 43.5655 866.557 44.244 865.73 44.244Z" fill="#00569E"/>
<path d="M862.752 20.1805H855.293C854.466 20.1805 853.79 19.502 853.79 18.6728C853.79 17.8435 854.466 17.165 855.293 17.165H862.752C863.579 17.165 864.256 17.8435 864.256 18.6728C864.256 19.502 863.579 20.1805 862.752 20.1805Z" fill="#00569E"/>
<path d="M866.316 24.4777H851.714C849.714 24.4777 848.09 22.8493 848.09 20.844V16.5018C848.09 14.4965 849.714 12.8682 851.714 12.8682H866.316C868.316 12.8682 869.94 14.4965 869.94 16.5018V20.844C869.94 22.8493 868.316 24.4777 866.316 24.4777ZM851.714 15.8836C851.384 15.8836 851.098 16.1701 851.098 16.5018V20.844C851.098 21.1757 851.384 21.4622 851.714 21.4622H866.316C866.647 21.4622 866.932 21.1757 866.932 20.844V16.5018C866.932 16.1701 866.647 15.8836 866.316 15.8836H851.714Z" fill="#00569E"/>
<path d="M862.105 72.6045H818.015C817.188 72.6045 816.511 71.926 816.511 71.0968V51.4511C816.511 50.6218 817.188 49.9434 818.015 49.9434C818.842 49.9434 819.519 50.6218 819.519 51.4511V69.589H860.601V51.4511C860.601 50.6218 861.278 49.9434 862.105 49.9434C862.932 49.9434 863.609 50.6218 863.609 51.4511V71.0968C863.609 71.926 862.932 72.6045 862.105 72.6045Z" fill="#00569E"/>
<path d="M825.233 72.6041C824.406 72.6041 823.729 71.9256 823.729 71.0964C823.729 67.9452 821.173 65.367 818.015 65.367C817.188 65.367 816.511 64.6885 816.511 63.8593C816.511 63.03 817.188 62.3516 818.015 62.3516C822.827 62.3516 826.737 66.2717 826.737 71.0964C826.737 71.9256 826.06 72.6041 825.233 72.6041Z" fill="#00569E"/>
<path d="M854.887 72.6041C854.06 72.6041 853.383 71.9256 853.383 71.0964C853.383 66.2717 857.293 62.3516 862.105 62.3516C862.932 62.3516 863.609 63.03 863.609 63.8593C863.609 64.6885 862.932 65.367 862.105 65.367C858.962 65.367 856.391 67.9302 856.391 71.0964C856.391 71.9256 855.714 72.6041 854.887 72.6041Z" fill="#00569E"/>
<path d="M840.06 63.6637C838.421 63.6637 836.947 62.8495 836.316 61.5679C836.135 61.191 836.286 60.7387 836.662 60.5578C837.038 60.3768 837.489 60.5276 837.669 60.9045C838.045 61.6584 839.008 62.156 840.06 62.156C841.459 62.156 842.602 61.3116 842.602 60.2562C842.602 59.0651 841.955 58.6128 839.955 58.3565C836.677 57.9494 836 56.2758 836 54.9641C836 53.0945 837.82 51.5566 840.045 51.5566C841.624 51.5566 843.083 52.3407 843.729 53.5468C843.925 53.9087 843.789 54.3761 843.429 54.5721C843.068 54.7681 842.617 54.6324 842.406 54.2705C842.015 53.5468 841.068 53.0644 840.045 53.0644C838.647 53.0644 837.504 53.9087 837.504 54.9641C837.504 55.4315 837.504 56.5321 840.15 56.8638C841.429 57.0297 844.105 57.3614 844.105 60.2562C844.105 62.1258 842.286 63.6637 840.06 63.6637Z" fill="#00569E"/>
<path d="M840.061 65.9552C839.233 65.9552 838.557 65.2767 838.557 64.4475V51.7675C838.557 50.9382 839.233 50.2598 840.061 50.2598C840.888 50.2598 841.565 50.9382 841.565 51.7675V64.4475C841.565 65.2767 840.888 65.9552 840.061 65.9552Z" fill="#00569E"/>
<path d="M840.06 69.3327C837.85 69.3327 835.699 68.3527 834.015 66.5887C831.895 64.3572 830.677 61.0855 830.677 57.6026C830.677 55.0847 831.293 52.6874 832.481 50.6822C832.902 49.9584 833.82 49.7172 834.541 50.1394C835.263 50.5615 835.504 51.4813 835.083 52.205C834.181 53.7579 833.699 55.6275 833.699 57.6026C833.699 60.3165 834.617 62.8344 836.196 64.508C836.977 65.3373 838.286 66.3173 840.06 66.3173C841.835 66.3173 843.113 65.3523 843.895 64.5382C845.504 62.8646 846.436 60.3467 846.436 57.6026C846.436 55.6275 845.955 53.7579 845.053 52.205C844.632 51.4813 844.872 50.5615 845.594 50.1394C846.301 49.7172 847.233 49.9584 847.654 50.6822C848.827 52.7025 849.459 55.0998 849.459 57.6026C849.459 61.1156 848.226 64.4025 846.075 66.6339C844.406 68.3678 842.271 69.3327 840.09 69.3327" fill="#00569E"/>
<path d="M822.301 38.409V30.3426H820.646V27.6287H822.301V25.4274C822.301 21.1606 825.519 18.9141 829.098 18.9141C831.188 18.9141 832.586 19.4568 834.03 20.8892L831.564 23.3619C830.947 22.7437 830.346 22.2763 829.098 22.2763C827.263 22.2763 826.045 23.3619 826.045 25.5933V27.6287H829.098V30.3426H826.045V35.0317H834.03V38.3939H822.301V38.409Z" fill="#00569E"/>
<path d="M660.842 65.5033C660.015 65.5033 659.338 64.8248 659.338 63.9956V25.0661C659.338 22.1712 656.992 19.8192 654.105 19.8192H620.436C619.609 19.8192 618.932 19.1407 618.932 18.3114C618.932 17.4822 619.609 16.8037 620.436 16.8037H654.105C658.646 16.8037 662.346 20.5127 662.346 25.0661V63.9956C662.346 64.8248 661.669 65.5033 660.842 65.5033Z" fill="#00569E"/>
<path d="M586.527 65.5031C585.699 65.5031 585.022 64.8246 585.022 63.9954V40.8066C585.022 39.9773 585.699 39.2988 586.527 39.2988C587.354 39.2988 588.031 39.9773 588.031 40.8066V63.9954C588.031 64.8246 587.354 65.5031 586.527 65.5031Z" fill="#00569E"/>
<path d="M604.752 72.3484H582.075C578.827 72.3484 576.195 69.6948 576.195 66.4532V64.6439C576.195 63.4679 577.158 62.5029 578.331 62.5029H609.323C610.15 62.5029 610.827 63.1814 610.827 64.0107C610.827 64.8399 610.15 65.5184 609.323 65.5184H579.188V66.4532C579.188 68.0514 580.481 69.3329 582.06 69.3329H604.737C605.564 69.3329 606.24 70.0114 606.24 70.8407C606.24 71.6699 605.564 72.3484 604.737 72.3484" fill="#00569E"/>
<path d="M665.293 72.3484H642.707C641.88 72.3484 641.203 71.6699 641.203 70.8407C641.203 70.0114 641.88 69.3329 642.707 69.3329H665.293C666.872 69.3329 668.165 68.0363 668.165 66.4532V65.5184H638.03C637.203 65.5184 636.526 64.8399 636.526 64.0107C636.526 63.1814 637.203 62.5029 638.03 62.5029H669.023C670.196 62.5029 671.158 63.4679 671.158 64.6439V66.4532C671.158 69.7099 668.526 72.3484 665.278 72.3484" fill="#00569E"/>
<path d="M625.068 24.3875H622.286C621.459 24.3875 620.782 23.709 620.782 22.8798C620.782 22.0505 621.459 21.3721 622.286 21.3721H625.068C625.895 21.3721 626.572 22.0505 626.572 22.8798C626.572 23.709 625.895 24.3875 625.068 24.3875Z" fill="#00569E"/>
<path d="M660.842 28.7742H620.316C619.489 28.7742 618.812 28.0958 618.812 27.2665C618.812 26.4373 619.489 25.7588 620.316 25.7588H660.842C661.669 25.7588 662.346 26.4373 662.346 27.2665C662.346 28.0958 661.669 28.7742 660.842 28.7742Z" fill="#00569E"/>
<path d="M666.571 22.3519C666.496 22.3519 666.406 22.3519 666.316 22.3368C665.489 22.2011 664.947 21.4171 665.083 20.6029C665.263 19.4872 665.023 18.3715 664.391 17.4367C663.759 16.5019 662.812 15.8536 661.714 15.6274C660.902 15.4465 660.391 14.6474 660.556 13.8332C660.722 13.0191 661.534 12.4914 662.346 12.6723C664.196 13.0794 665.805 14.1649 666.872 15.733C667.94 17.301 668.346 19.2158 668.045 21.0854C667.925 21.8242 667.278 22.3368 666.556 22.3368" fill="#00569E"/>
<path d="M672.316 23.9655C672.241 23.9655 672.15 23.9655 672.06 23.9504C671.233 23.8147 670.692 23.0307 670.827 22.2165C671.293 19.4122 670.677 16.5776 669.083 14.2256C667.489 11.8735 665.098 10.2452 662.316 9.65718C661.504 9.47625 660.993 8.67715 661.158 7.86298C661.338 7.04881 662.12 6.53618 662.947 6.70203C666.481 7.47097 669.534 9.53656 671.564 12.5219C673.594 15.5072 674.376 19.1257 673.79 22.699C673.669 23.4378 673.023 23.9655 672.301 23.9655" fill="#00569E"/>
<path d="M623.684 60.5279C617.519 60.5279 612.511 55.5071 612.511 49.3255C612.511 43.1438 617.519 38.123 623.684 38.123C629.85 38.123 634.857 43.1438 634.857 49.3255C634.857 55.5071 629.85 60.5279 623.684 60.5279ZM623.684 41.1385C619.188 41.1385 615.519 44.8174 615.519 49.3255C615.519 53.8336 619.188 57.5124 623.684 57.5124C628.18 57.5124 631.85 53.8336 631.85 49.3255C631.85 44.8174 628.18 41.1385 623.684 41.1385Z" fill="#00569E"/>
<path d="M623.684 80.1433C614.963 80.1433 609.038 77.8666 608.797 77.7611C608.151 77.5048 607.76 76.8414 607.85 76.1478C608.948 68.2926 615.76 62.3672 623.684 62.3672C631.609 62.3672 638.436 68.3076 639.534 76.193C639.624 76.8866 639.233 77.55 638.587 77.8063C638.331 77.8968 632.406 80.1433 623.684 80.1433ZM611.053 75.3487C613.113 75.982 617.729 77.1278 623.684 77.1278C629.639 77.1278 634.256 75.997 636.316 75.3789C634.932 69.6043 629.714 65.3826 623.684 65.3826C617.654 65.3826 612.451 69.5892 611.053 75.3487Z" fill="#00569E"/>
<path d="M596.03 27.8096C593.428 27.8096 591.098 26.4979 590.09 24.4775C589.714 23.7387 590.03 22.819 590.767 22.4572C591.504 22.0802 592.421 22.3969 592.782 23.1356C593.278 24.1307 594.571 24.7941 596.015 24.7941C597.864 24.7941 599.443 23.6784 599.443 22.3516C599.443 21.0248 598.917 20.286 595.834 19.894C590.676 19.2457 589.594 16.577 589.594 14.4511C589.594 11.4357 592.481 8.99316 596.03 8.99316C598.541 8.99316 600.827 10.2295 601.879 12.1594C602.27 12.8831 602 13.8028 601.278 14.2099C600.541 14.6019 599.639 14.3305 599.233 13.6068C598.722 12.6569 597.428 12.0086 596.03 12.0086C594.18 12.0086 592.601 13.1243 592.601 14.4511C592.601 15.0995 592.601 16.4564 596.21 16.9087C598.075 17.1349 602.451 17.6928 602.451 22.3516C602.451 25.3671 599.564 27.8096 596.015 27.8096" fill="#00569E"/>
<path d="M596.03 30.117C595.203 30.117 594.526 29.4386 594.526 28.6093V8.1796C594.526 7.35035 595.203 6.67188 596.03 6.67188C596.858 6.67188 597.535 7.35035 597.535 8.1796V28.6093C597.535 29.4386 596.858 30.117 596.03 30.117Z" fill="#00569E"/>
<path d="M598.797 43.8369C598.255 43.8369 597.714 43.6258 597.308 43.2187L590.135 36.0268H582.737C579.128 36.0268 576.195 33.0868 576.195 29.4682V6.79201C576.195 3.17347 579.128 0.233398 582.737 0.233398H609.338C612.947 0.233398 615.88 3.17347 615.88 6.79201V29.4833C615.88 33.1018 612.947 36.0419 609.338 36.0419H600.917V41.726C600.917 42.5855 600.406 43.3544 599.609 43.6861C599.338 43.7916 599.067 43.8519 598.797 43.8519M582.722 3.24885C580.782 3.24885 579.188 4.83197 579.188 6.79201V29.4682C579.188 31.4132 580.767 33.0114 582.722 33.0114H590.496C591.052 33.0114 591.609 33.2375 592 33.6446L597.91 39.57V35.1373C597.91 33.9613 598.857 33.0114 600.03 33.0114H609.338C611.278 33.0114 612.872 31.4283 612.872 29.4682V6.79201C612.872 4.84704 611.293 3.24885 609.338 3.24885H582.737H582.722Z" fill="#00569E"/>
<path d="M333.143 73.6298C332.857 73.6298 332.571 73.5544 332.316 73.3735C331.714 72.9815 317.564 63.6185 312.872 60.1507C309.308 57.5122 307.173 52.6875 307.173 47.2446V20.9498C307.173 20.5277 307.353 20.1356 307.654 19.8492C307.955 19.5627 308.376 19.427 308.782 19.4421C319.353 20.2261 332.015 8.90308 332.135 8.79754C332.677 8.31506 333.504 8.28491 334.075 8.73723C334.256 8.90308 347.083 20.1809 357.489 19.4421C357.895 19.427 358.316 19.5627 358.616 19.8492C358.917 20.1356 359.098 20.5277 359.098 20.9498V47.2446C359.098 52.6875 356.962 57.5122 353.398 60.1507C348.707 63.6185 334.556 72.9815 333.955 73.3735C333.699 73.5393 333.413 73.6298 333.128 73.6298M310.18 22.4877V47.2446C310.18 51.6622 311.895 55.6728 314.662 57.7233C318.647 60.6784 329.985 68.2171 333.143 70.3128C336.301 68.2171 347.639 60.6784 351.624 57.7233C354.391 55.6728 356.105 51.6622 356.105 47.2446V22.4877C346.541 22.2615 336.346 14.5269 333.143 11.8884C329.91 14.5721 319.819 22.2766 310.18 22.4877Z" fill="#00569E"/>
<path d="M333.143 80.1433C332.857 80.1433 332.571 80.0528 332.316 79.887L329.323 77.9118C327.804 76.9017 314.316 67.9759 309.639 64.5232C304.692 60.8595 301.744 54.3913 301.744 47.2447V15.115C301.744 14.6929 301.925 14.3008 302.225 14.0144C302.541 13.7279 302.947 13.5922 303.353 13.6073L309.158 14.0144C309.353 14.0295 309.564 14.0445 309.774 14.0445C316.556 14.0445 325.579 7.35022 328.481 4.77201L332.105 1.34947C332.692 0.806687 333.594 0.806687 334.165 1.34947L337.834 4.81724C340.797 7.44069 350.24 14.527 357.128 14.0295L362.932 13.6224C363.353 13.6073 363.759 13.743 364.06 14.0295C364.361 14.3159 364.541 14.7079 364.541 15.1301V47.2598C364.541 54.4215 361.594 60.8745 356.646 64.5383C351.97 68.0061 338.496 76.9318 336.962 77.9269L333.97 79.9021C333.729 80.0679 333.428 80.1433 333.143 80.1433ZM304.752 16.7283V47.2447C304.752 53.4414 307.248 59.005 311.428 62.0958C316.03 65.5033 329.458 74.3988 330.977 75.3939L333.143 76.8263L335.308 75.3939C336.827 74.3988 350.255 65.5033 354.857 62.0958C359.037 58.9899 361.534 53.4414 361.534 47.2447V16.7283L357.338 17.0148C357.067 17.0298 356.782 17.0449 356.511 17.0449C347.218 17.0449 335.925 7.12406 335.819 7.01852L333.158 4.50062L330.526 6.98837C330.376 7.12406 319.098 17.0449 309.789 17.0449C309.519 17.0449 309.233 17.0449 308.962 17.0148L304.767 16.7283H304.752Z" fill="#00569E"/>
<path d="M332.195 46.7616C331.789 46.7616 331.413 46.6108 331.128 46.3243L323.549 38.7254C322.962 38.1374 322.962 37.1875 323.549 36.5995C324.135 36.0115 325.083 36.0115 325.669 36.5995L332.18 43.128L346.03 29.2418C346.616 28.6538 347.564 28.6538 348.15 29.2418C348.737 29.8298 348.737 30.7797 348.15 31.3677L333.233 46.3243C332.947 46.6108 332.571 46.7616 332.165 46.7616" fill="#00569E"/>
<path d="M332.27 55.0388C324.225 55.0388 317.669 48.4802 317.669 40.3988C317.669 32.3174 324.21 25.7588 332.27 25.7588C335.684 25.7588 338.992 26.965 341.609 29.1512C342.255 29.6789 342.331 30.6287 341.804 31.2771C341.278 31.9254 340.316 32.0008 339.684 31.4731C337.609 29.7392 334.977 28.7893 332.27 28.7893C325.879 28.7893 320.676 34.0061 320.676 40.4139C320.676 46.8217 325.879 52.0385 332.27 52.0385C338.661 52.0385 343.864 46.8217 343.864 40.4139C343.864 39.8108 343.819 39.2077 343.729 38.6197C343.609 37.7905 344.165 37.0215 344.992 36.9009C345.834 36.7803 346.586 37.3381 346.707 38.1674C346.827 38.9062 346.872 39.6751 346.872 40.429C346.872 48.4953 340.331 55.069 332.27 55.069" fill="#00569E"/>
<path d="M112.601 42.5254C111.774 42.5254 111.098 41.847 111.098 41.0177C111.098 35.8613 109.609 30.8707 106.782 26.5888C106.316 25.8952 106.511 24.9604 107.203 24.493C107.895 24.0256 108.827 24.2216 109.293 24.9152C112.451 29.6947 114.12 35.2582 114.12 41.0177C114.12 41.847 113.444 42.5254 112.616 42.5254" fill="#00569E"/>
<path d="M57.3534 42.5249C56.5263 42.5249 55.8496 41.8464 55.8496 41.0172C55.8496 24.9146 68.9173 11.8125 84.9774 11.8125C89.8797 11.8125 94.7368 13.0639 99.0075 15.416C99.7293 15.8231 100 16.7428 99.594 17.4665C99.188 18.1902 98.2857 18.4616 97.5489 18.0545C93.7143 15.9437 89.3684 14.8129 84.9624 14.8129C70.5564 14.8129 58.8421 26.5581 58.8421 41.0021C58.8421 41.8313 58.1654 42.5098 57.3383 42.5098" fill="#00569E"/>
<path d="M84.4811 48.0585C80.3307 48.0585 76.9473 44.6661 76.9473 40.5048C76.9473 36.3434 80.3307 32.9511 84.4811 32.9511C84.9924 32.9511 85.5187 33.0114 86.0149 33.1169L103.519 18.8689C104.105 18.3864 104.977 18.4166 105.519 18.9594C106.06 19.5021 106.12 20.3615 105.654 20.9646L91.7894 38.6955C91.9398 39.2986 92.0149 39.9017 92.0149 40.5048C92.0149 44.6661 88.6315 48.0585 84.4811 48.0585ZM84.4811 35.9816C81.9849 35.9816 79.9548 38.017 79.9548 40.5198C79.9548 43.0227 81.9849 45.0581 84.4811 45.0581C86.9773 45.0581 89.0074 43.0227 89.0074 40.5198C89.0074 39.9771 88.9022 39.4494 88.7217 38.9217C88.5413 38.4241 88.6164 37.8813 88.9473 37.4592L95.0375 29.6793L87.3382 35.9514C86.9473 36.2681 86.4059 36.3736 85.9247 36.2078C85.4585 36.057 84.9773 35.9816 84.5112 35.9816" fill="#00569E"/>
<path d="M104.031 42.5247C103.204 42.5247 102.527 41.8463 102.527 41.017C102.527 38.4388 101.985 35.9511 100.902 33.6292C100.556 32.8753 100.887 31.9707 101.639 31.6239C102.391 31.2771 103.294 31.6088 103.64 32.3627C104.903 35.0917 105.535 38.0016 105.535 41.0321C105.535 41.8613 104.858 42.5398 104.031 42.5398" fill="#00569E"/>
<path d="M65.9247 42.5256C65.0976 42.5256 64.4209 41.8471 64.4209 41.0179C64.4209 29.6496 73.6389 20.4072 84.9773 20.4072C87.1277 20.4072 89.2329 20.7389 91.263 21.3872C92.045 21.6436 92.481 22.4879 92.2404 23.287C91.9848 24.071 91.1427 24.5082 90.3457 24.267C88.6164 23.7091 86.8119 23.4227 84.9773 23.4227C75.2931 23.4227 67.4284 31.3081 67.4284 41.0179C67.4284 41.8471 66.7517 42.5256 65.9247 42.5256Z" fill="#00569E"/>
<path d="M84.9777 17.6176C84.1505 17.6176 83.4736 16.9391 83.4736 16.1099V14.0292C83.4736 13.2 84.1505 12.5215 84.9777 12.5215C85.8049 12.5215 86.4818 13.2 86.4818 14.0292V16.1099C86.4818 16.9391 85.8049 17.6176 84.9777 17.6176Z" fill="#00569E"/>
<path d="M84.9777 70.9907C84.1505 70.9907 83.4736 70.3122 83.4736 69.4829V67.4023C83.4736 66.573 84.1505 65.8945 84.9777 65.8945C85.8049 65.8945 86.4818 66.573 86.4818 67.4023V69.4829C86.4818 70.3122 85.8049 70.9907 84.9777 70.9907Z" fill="#00569E"/>
<path d="M71.1581 67.2825C70.9024 67.2825 70.6467 67.2222 70.406 67.0865C69.6841 66.6643 69.4434 65.7446 69.8495 65.0209L70.8873 63.2267C71.3085 62.503 72.226 62.2618 72.9479 62.6689C73.6699 63.091 73.9105 64.0107 73.5044 64.7344L72.4666 66.5286C72.1808 67.0111 71.6845 67.2825 71.1581 67.2825Z" fill="#00569E"/>
<path d="M108.918 57.1351C108.662 57.1351 108.407 57.0748 108.166 56.9391L106.376 55.8987C105.654 55.4766 105.414 54.5569 105.82 53.8332C106.226 53.1095 107.158 52.8682 107.88 53.2753L109.67 54.3156C110.392 54.7378 110.633 55.6575 110.227 56.3812C109.956 56.8637 109.445 57.1351 108.918 57.1351Z" fill="#00569E"/>
<path d="M62.8278 30.4486C62.5721 30.4486 62.3164 30.3883 62.0758 30.2526L60.2859 29.2122C59.564 28.7901 59.3233 27.8703 59.7294 27.1466C60.1506 26.4229 61.068 26.1817 61.79 26.5888L63.5798 27.6291C64.3018 28.0513 64.5424 28.971 64.1363 29.6947C63.8656 30.1772 63.3542 30.4486 62.8278 30.4486Z" fill="#00569E"/>
<path d="M72.1962 21.0548C71.6698 21.0548 71.1734 20.7834 70.8877 20.301L69.8499 18.5068C69.4287 17.7831 69.6844 16.8633 70.4064 16.4412C71.1133 16.019 72.0458 16.2753 72.4669 16.999L73.5048 18.7932C73.9259 19.5169 73.6702 20.4367 72.9483 20.8588C72.7076 20.9945 72.4519 21.0548 72.1962 21.0548Z" fill="#00569E"/>
<path d="M98.8124 67.2824C98.286 67.2824 97.7897 67.011 97.5039 66.5285L96.4661 64.7343C96.0449 64.0106 96.3006 63.0909 97.0226 62.6687C97.7445 62.2466 98.662 62.5029 99.0832 63.2266L100.121 65.0208C100.542 65.7445 100.286 66.6642 99.5645 67.0864C99.3238 67.2221 99.0681 67.2824 98.8124 67.2824Z" fill="#00569E"/>
<path d="M61.0378 57.135C60.5114 57.135 60.015 56.8636 59.7293 56.3811C59.3081 55.6574 59.5638 54.7377 60.2858 54.3155L62.0756 53.2752C62.7976 52.853 63.7151 53.1093 64.1362 53.833C64.5573 54.5567 64.3016 55.4764 63.5797 55.8986L61.7898 56.9389C61.5492 57.0746 61.2935 57.135 61.0378 57.135Z" fill="#00569E"/>
<path d="M29.7743 80.2336C28.9472 80.2336 28.2705 79.5551 28.2705 78.7259C28.2705 77.8966 28.9472 77.2181 29.7743 77.2181C29.7743 77.2181 84.5412 77.2181 84.9622 77.2181C104.646 77.2181 120.661 61.1608 120.661 41.4247C120.661 21.6885 104.661 5.63124 84.9773 5.63124C65.2931 5.63124 49.278 21.6885 49.278 41.4247C49.278 50.0036 52.3457 58.2961 57.9397 64.7944C58.481 65.4277 58.4058 66.3776 57.7893 66.9203C57.1577 67.4631 56.2104 67.3877 55.669 66.7696C49.6089 59.7285 46.2855 50.7424 46.2855 41.4398C46.2855 20.0451 63.654 2.63086 84.9923 2.63086C106.331 2.63086 123.699 20.0451 123.699 41.4398C123.699 62.8344 106.331 80.2486 84.9923 80.2486V80.2034C84.4209 80.2487 83.654 80.2486 82.6164 80.2486H29.7743V80.2336Z" fill="#00569E"/>
</g>
<defs>
<clipPath id="clip0_218_1658">
<rect width="878" height="80" fill="white" transform="translate(0 0.233398)"/>
</clipPath>
</defs>
</svg>
