<svg width="52" height="48" viewBox="0 0 52 48" fill="none" xmlns="http://www.w3.org/2000/svg">
<path d="M46.6668 11.0833H36.3334V5.91667L31.1667 0.75H20.8334L15.6667 5.91667V11.0833H5.33342C2.49175 11.0833 0.166748 13.4083 0.166748 16.25V29.1667C0.166748 31.1042 1.20008 32.7317 2.75008 33.6358V42.0833C2.75008 44.9508 5.04925 47.25 7.91675 47.25H44.0834C46.9509 47.25 49.2501 44.9508 49.2501 42.0833V33.61C50.7743 32.7058 51.8334 31.0525 51.8334 29.1667V16.25C51.8334 13.4083 49.5084 11.0833 46.6668 11.0833ZM20.8334 5.91667H31.1667V11.0833H20.8334V5.91667ZM5.33342 16.25H46.6668V29.1667H33.7501V21.4167H18.2501V29.1667H5.33342V16.25ZM28.5834 31.75H23.4167V26.5833H28.5834V31.75ZM44.0834 42.0833H7.91675V34.3333H18.2501V36.9167H33.7501V34.3333H44.0834V42.0833Z" fill="#00569E"/>
</svg>
