<svg width="38" height="28" viewBox="0 0 38 28" fill="none" xmlns="http://www.w3.org/2000/svg">
<path d="M18.981 0C8.493 0 0 6.272 0 14C0 21.728 8.493 28 18.981 28C29.488 28 38 21.728 38 14C38 6.272 29.488 0 18.981 0ZM32.148 8.4H26.543C25.935 6.65 25.061 4.97 23.921 3.416C27.417 4.298 30.324 6.09 32.148 8.4ZM19 2.856C20.577 4.536 21.812 6.398 22.629 8.4H15.371C16.188 6.398 17.423 4.536 19 2.856ZM4.294 16.8C3.99 15.904 3.8 14.966 3.8 14C3.8 13.034 3.99 12.096 4.294 11.2H10.716C10.564 12.124 10.45 13.048 10.45 14C10.45 14.952 10.564 15.876 10.716 16.8H4.294ZM5.852 19.6H11.457C12.065 21.35 12.939 23.03 14.079 24.584C10.583 23.702 7.676 21.924 5.852 19.6ZM11.457 8.4H5.852C7.676 6.076 10.583 4.298 14.079 3.416C12.939 4.97 12.065 6.65 11.457 8.4ZM19 25.144C17.423 23.464 16.188 21.602 15.371 19.6H22.629C21.812 21.602 20.577 23.464 19 25.144ZM23.446 16.8H14.554C14.383 15.876 14.25 14.952 14.25 14C14.25 13.048 14.383 12.11 14.554 11.2H23.446C23.617 12.11 23.75 13.048 23.75 14C23.75 14.952 23.617 15.876 23.446 16.8ZM23.921 24.584C25.061 23.03 25.935 21.35 26.543 19.6H32.148C30.324 21.91 27.417 23.702 23.921 24.584ZM27.284 16.8C27.436 15.876 27.55 14.952 27.55 14C27.55 13.048 27.436 12.124 27.284 11.2H33.706C34.01 12.096 34.2 13.034 34.2 14C34.2 14.966 34.01 15.904 33.706 16.8H27.284Z" fill="#00569E"/>
</svg>
