<?xml version="1.0" encoding="utf-8"?>
<!-- Generator: Adobe Illustrator 16.0.0, SVG Export Plug-In . SVG Version: 6.00 Build 0)  -->
<!DOCTYPE svg PUBLIC "-//W3C//DTD SVG 1.1//EN" "http://www.w3.org/Graphics/SVG/1.1/DTD/svg11.dtd">
<svg version="1.1" id="Layer_1" xmlns="http://www.w3.org/2000/svg" xmlns:xlink="http://www.w3.org/1999/xlink" x="0px" y="0px"
	 width="18.641px" height="18.75px" viewBox="0 0 18.641 18.75" enable-background="new 0 0 18.641 18.75" xml:space="preserve">
<g>
	<path fill="#00569e" d="M7.19,0.004c2.602,0.055,4.656,1.132,6.108,3.317c0.091,0.136,0.211,0.265,0.344,0.361
		c0.656,0.475,1.219,1.038,1.676,1.708c0.068,0.1,0.163,0.19,0.262,0.261c1.635,1.176,2.643,2.751,2.959,4.74
		c0.382,2.41-0.315,4.502-2,6.242c-1.166,1.202-2.606,1.917-4.286,2.076c-2.704,0.255-4.914-0.694-6.576-2.839
		c-0.291-0.375-0.663-0.619-0.997-0.923c-0.504-0.458-0.947-0.963-1.33-1.526c-0.106-0.156-0.24-0.304-0.391-0.418
		c-1.485-1.131-2.454-2.598-2.813-4.431c-0.33-1.682-0.108-3.305,0.737-4.813c1.149-2.05,2.895-3.269,5.204-3.686
		C6.272,0.04,6.458,0.017,6.645,0.006C6.827-0.006,7.008,0.004,7.19,0.004 M7.218,0.507C3.615,0.456,0.505,3.49,0.522,7.184
		c0.016,3.685,3,6.676,6.669,6.699c3.682,0.022,6.681-3.043,6.713-6.616C13.938,3.54,10.886,0.461,7.218,0.507 M14.016,4.708
		c0.891,2.954,0.366,5.593-1.891,7.718c-2.265,2.134-4.939,2.467-7.824,1.373c1.078,1.404,3.478,2.8,6.291,2.293
		c2.614-0.472,4.873-2.549,5.39-5.394c0.241-1.324,0.097-2.618-0.45-3.856C15.171,6.027,14.678,5.306,14.016,4.708 M16.102,6.765
		c1.012,2.932,0.577,5.599-1.622,7.806c-2.199,2.206-4.87,2.65-7.805,1.654c1.798,1.729,3.918,2.38,6.352,1.815
		c2.504-0.581,4.746-2.777,5.053-5.742C18.302,10.146,17.64,8.286,16.102,6.765"/>
	<path fill="#00569e" d="M7.165,9.408C6.191,9.156,6.018,9.08,5.581,8.711c0.097-0.192,0.198-0.388,0.305-0.599
		c0.375,0.29,0.738,0.558,1.221,0.601C7.12,8.68,7.143,8.648,7.143,8.615c0.004-0.363,0.009-0.727-0.003-1.09
		C7.138,7.468,7.062,7.392,7.003,7.363c-0.219-0.106-0.46-0.17-0.665-0.296c-0.73-0.448-0.64-1.539,0.172-1.899
		c0.12-0.053,0.246-0.109,0.373-0.121c0.209-0.022,0.292-0.111,0.268-0.323C7.135,4.582,7.154,4.436,7.147,4.292
		c-0.005-0.124,0.049-0.167,0.168-0.16c0.11,0.008,0.222,0.002,0.354,0.002c0,0.235,0.012,0.447-0.004,0.657
		c-0.014,0.164,0.053,0.208,0.2,0.238c0.263,0.054,0.52,0.131,0.776,0.21c0.099,0.031,0.189,0.093,0.3,0.15
		c-0.1,0.205-0.195,0.399-0.281,0.575C8.33,5.838,8.019,5.72,7.671,5.587c0,0.438-0.004,0.818,0.004,1.199
		c0.001,0.037,0.073,0.086,0.121,0.108C8.021,7,8.258,7.084,8.476,7.202C9.195,7.589,9.187,8.73,8.424,9.137
		C8.24,9.235,8.03,9.289,7.827,9.341c-0.105,0.027-0.154,0.061-0.152,0.17c0.003,0.207-0.003,0.414,0.002,0.62
		c0.003,0.116-0.029,0.168-0.156,0.173c-0.356,0.013-0.356,0.018-0.356-0.344V9.408z M7.658,7.6v1.103
		c0.339-0.034,0.519-0.215,0.528-0.51C8.196,7.891,7.986,7.652,7.658,7.6 M7.112,5.63C6.833,5.632,6.646,5.774,6.62,5.997
		C6.586,6.29,6.778,6.535,7.112,6.609V5.63z"/>
</g>
</svg>
