<svg xmlns="http://www.w3.org/2000/svg" viewBox="0 0 58.14 38.63">
  <title>make-conversion</title>
  <g id="Layer_2" data-name="Layer 2">
    <g id="Layer_1-2" data-name="Layer 1">
      <path fill="currentColor" d="M58.14,23.52c0,4,0,8,0,12.05,0,2.37-.66,3-3,3-7.17,0-14.33,0-21.5,0a1.55,1.55,0,0,1-1.7-1.14c-.76-1.89-1.7-3.7-2.37-5.61a2.15,2.15,0,0,0-2.47-1.57c-7.94.06-15.88,0-23.82,0C.55,30.34,0,29.81,0,27.12q0-12,0-24C0,.7.67,0,3.08,0,8.94,0,14.8.06,20.66,0a1.78,1.78,0,0,1,1.92,1.29c.87,2,1.9,3.91,2.75,5.91a1.71,1.71,0,0,0,1.86,1.18c9.2,0,18.4,0,27.59,0,2.88,0,3.36.48,3.36,3.4ZM33.71,28.6c-.17-.44-.23-.67-.34-.89q-6-12.54-12-25.09a1.43,1.43,0,0,0-1.58-.88c-5.47,0-10.93.05-16.4,0-1.37,0-1.71.4-1.7,1.72.05,7.83.06,15.67,0,23.51,0,1.46.5,1.75,1.84,1.75,9.53-.05,19.07,0,28.6,0C32.56,28.67,33,28.63,33.71,28.6Zm.37,8.32h1.46c6.44,0,12.87,0,19.31,0,1.29,0,1.64-.36,1.63-1.63q-.07-11.82,0-23.65c0-1.31-.33-1.75-1.7-1.74-8.86.05-17.71,0-26.56,0-.42,0-.84,0-1.43.08.27.62.46,1.09.68,1.55,2.84,5.87,5.7,11.73,8.49,17.62a3.27,3.27,0,0,1,.13,2.14C35.54,33.19,34.8,35,34.08,36.92Zm.55-6.43H30.78l2.1,4.77Z"/>
      <path fill="currentColor" d="M17.18,11.45l-3-1.13c0,1.23-.06,2.27,0,3.29,0,.29.53.57.86.78a12.87,12.87,0,0,1,2.42,1.52,3.43,3.43,0,0,1-1.7,5.58c-1.57.49-1.77,1.27-1.63,2.57a4.44,4.44,0,0,1-.06.71l-1.3.06c-.12-.19-.23-.28-.22-.35.27-1.83-.39-2.81-2.35-3.05a8.9,8.9,0,0,1-2.62-1.36c.37-.75.65-1.34.92-1.9l3.91,2a35.38,35.38,0,0,0,0-3.64c0-.33-.55-.64-.9-.89A11.1,11.1,0,0,1,8.94,13.8c-1.24-1.69-.39-4,1.64-4.9.53-.24,1.1-.37,1.77-.6V5.76l1.7-.09c0,.93.09,1.73.14,2.58.69.17,1.35.28,2,.5A19.08,19.08,0,0,1,18,9.57Zm-3,8.21.52.25c.33-.6.94-1.2.9-1.77s-.71-1.11-1.1-1.66l-.32.23Zm-1.87-9.08-.43-.23c-.32.49-.92,1-.88,1.47s.64,1.08,1,1.61l.31-.19Z"/>
      <path fill="currentColor" d="M37.91,24.18l1.62-.12V22.19l-.41-.14c-.52-.13-1.47.32-1.31-.75,0-.27.88-.38,1.3-.63a3.32,3.32,0,0,0,1.22-.94A7.57,7.57,0,0,1,52.27,18.2L51,19.8c-1.63-1.32-3.42-2.19-5.47-1.43a16.58,16.58,0,0,0-2.91,1.82l.22.47h4.63V22H42.12v2.09h5.27c.41,1,.14,1.42-.81,1.39-1.2,0-2.4,0-3.64,0,1.05,2.91,4.65,3.36,8.12,1L52.35,28a7.4,7.4,0,0,1-11.84-1.44,1.57,1.57,0,0,0-1.65-1C37.77,25.5,37.77,25.44,37.91,24.18Z"/>
    </g>
  </g>
</svg>
