<svg width="131" height="33" viewBox="0 0 131 33" fill="none" xmlns="http://www.w3.org/2000/svg">
<path d="M57.2478 0.5H65.8066C74.7946 0.5 80.7052 5.35905 80.7052 16.3528C80.7052 27.3597 74.7938 32.5 66.2019 32.5H57.2478V0.5ZM65.419 26.6667C70.2387 26.6667 73.5163 24.0076 73.5163 16.3537C73.5163 8.71115 70.2387 6.33332 65.419 6.33332H64.2594V26.6667H65.419Z" fill="white"/>
<path d="M14.7459 12.843H12.3208L23.4812 0.503516H4.06395C1.81949 0.503516 0 2.38283 0 4.70109V31.9822C0 32.2661 0.223937 32.4974 0.498769 32.4974H7.08031V20.1561L14.7459 12.843Z" fill="#F49C0E"/>
<path d="M23.4804 0.503613V12.8431L15.8148 20.1554H18.24L7.07959 32.4966H26.4977C28.7413 32.4966 30.5599 30.6173 30.5599 28.299V1.01878C30.5599 0.734037 30.3368 0.503613 30.0611 0.503613H23.4804Z" fill="#F49C0E"/>
<path d="M42.7025 26.4266V20.0606V19.0119V13.9881V12.9394V6.5725H46.7342H50.4114H52.5693L52.9332 5.97848L56.2889 0.5H42.7687C42.7466 0.5 42.7237 0.503505 42.7025 0.503505C38.8243 0.540302 35.6892 3.7969 35.6892 7.81136V25.1878C35.6892 29.2022 38.8235 32.4588 42.7025 32.4965H46.7342H50.4114H52.5693L52.9332 31.9025L56.2897 26.4231H42.7687C42.7466 26.4231 42.7237 26.4266 42.7025 26.4266Z" fill="white"/>
<path d="M120.424 16.0488L129.647 0.5H121.993L118.191 6.97027C117.906 7.439 117.611 7.95592 117.311 8.52453C117.01 9.09315 116.732 9.64511 116.48 10.1804H116.385C116.162 9.64599 115.901 9.09402 115.6 8.52453C115.299 7.95592 115.005 7.43812 114.72 6.97027L110.916 0.5H102.834L112.105 16.2486L104.761 28.4943L96.3193 0.5H87.9132L78.2644 32.5H85.4397L87.3313 24.8881L88.2992 20.9937H95.6933L96.6544 24.8881L98.5341 32.5H105.969H110.013L114.149 25.5785C114.467 25.045 114.799 24.4658 115.148 23.8482C115.496 23.2287 115.798 22.6365 116.051 22.067H116.146C116.431 22.6365 116.74 23.2375 117.073 23.8727C117.407 24.5096 117.716 25.0774 118.001 25.5785L122.042 32.5H130.125L120.424 16.0488ZM89.7234 15.2401C90.4367 12.2945 91.1942 8.98976 91.8703 5.97848H92.0603C92.7245 8.98976 93.5456 12.2937 94.2725 15.2401H89.7234Z" fill="white"/>
</svg>
