<svg width="192" height="46" viewBox="0 0 192 46" fill="none" xmlns="http://www.w3.org/2000/svg">
<g clip-path="url(#clip0_235_1787)">
<path d="M84.3936 0.233398H96.9361C110.108 0.233398 118.769 7.15439 118.769 22.8133C118.769 38.491 110.106 45.8126 97.5154 45.8126H84.3936V0.233398ZM96.368 37.5039C103.431 37.5039 108.234 33.7165 108.234 22.8146C108.234 11.9289 103.431 8.54208 96.368 8.54208H94.6688V37.5039H96.368Z" fill="white"/>
<path d="M22.108 17.8141H18.5541L34.9092 0.238281H6.45408C3.16492 0.238281 0.498535 2.91508 0.498535 6.21709V45.075C0.498535 45.4793 0.826705 45.8087 1.22946 45.8087H10.8744V28.2305L22.108 17.8141Z" fill="#F49C0E"/>
<path d="M34.9092 0.238281V17.8141L23.6756 28.2292H27.2296L10.8745 45.8075H39.3308C42.6188 45.8075 45.2839 43.1307 45.2839 39.8287V0.972061C45.2839 0.566485 44.957 0.238281 44.553 0.238281H34.9092Z" fill="#F49C0E"/>
<path d="M63.0775 37.162V28.0946V26.6008V19.4452V17.9514V8.88276H68.9858H74.3745H77.5369L78.0701 8.03667L82.9877 0.233398H63.1745C63.1421 0.233398 63.1086 0.23839 63.0775 0.23839C57.3942 0.290803 52.7998 4.92934 52.7998 10.6473V35.3974C52.7998 41.1154 57.3929 45.7539 63.0775 45.8076H68.9858H74.3745H77.5369L78.0701 44.9615L82.989 37.157H63.1745C63.1421 37.157 63.1086 37.162 63.0775 37.162Z" fill="white"/>
<path d="M176.975 22.3803L190.491 0.233398H179.275L173.702 9.44932C173.284 10.117 172.853 10.8532 172.413 11.6631C171.972 12.473 171.565 13.2592 171.195 14.0217H171.055C170.728 13.2605 170.347 12.4743 169.906 11.6631C169.464 10.8532 169.034 10.1157 168.616 9.44932L163.041 0.233398H151.197L164.784 22.6648L154.022 40.1071L141.651 0.233398H129.332L115.192 45.8126H125.707L128.479 34.9706L129.897 29.4236H140.733L142.142 34.9706L144.896 45.8126H155.792H161.719L167.78 35.954C168.245 35.194 168.732 34.3691 169.243 33.4893C169.754 32.6071 170.195 31.7635 170.567 30.9523H170.706C171.124 31.7635 171.576 32.6195 172.065 33.5243C172.553 34.4315 173.006 35.2402 173.423 35.954L179.345 45.8126H191.191L176.975 22.3803ZM131.985 21.2285C133.03 17.033 134.14 12.3258 135.131 8.03667H135.409C136.382 12.3258 137.586 17.0317 138.651 21.2285H131.985Z" fill="white"/>
</g>
<defs>
<clipPath id="clip0_235_1787">
<rect width="191" height="45" fill="white" transform="translate(0.5 0.233398)"/>
</clipPath>
</defs>
</svg>
