<svg width="986" height="811" viewBox="0 0 986 811" fill="none" xmlns="http://www.w3.org/2000/svg">
<g clip-path="url(#clip0_580_8873)">
<rect width="986" height="811" fill="#F4F4F4"/>
<rect width="986" height="811" fill="#DAE3E8"/>
<path d="M812.611 0H744.241L785.99 25.0938C789.021 26.9157 792.939 26.1527 795.064 23.3266L812.611 0Z" fill="#F2F5F7"/>
<path d="M529.537 0H705.5L767.636 37.6165C771.774 40.1215 772.12 45.9948 768.305 48.9684L699.29 102.76C696.344 105.056 692.106 104.593 689.726 101.715L655.336 60.1393C654.161 58.7186 652.466 57.8269 650.63 57.6629L622.07 55.1129C620.503 54.973 618.935 55.3724 617.626 56.2451L610.581 60.9416L391.219 230.77C388.186 233.119 383.819 232.544 381.497 229.489L334.148 167.215C331.891 164.248 332.398 160.025 335.292 157.676L529.537 0Z" fill="#F2F5F7"/>
<path d="M321.544 0H500.619L321.527 142.071C318.342 144.598 313.674 143.839 311.453 140.435L254.627 53.3373C252.566 50.1783 253.422 45.95 256.549 43.8408L321.544 0Z" fill="#F2F5F7"/>
<path d="M74.6663 0H296.823L238.454 38.0281C237.897 38.3915 237.289 38.6724 236.651 38.8619L37.3217 98.0465C31.4927 99.7772 26.4346 93.6731 29.218 88.2672L74.6663 0Z" fill="#F2F5F7"/>
<path d="M0 106.562V0H58.3038L6.21643 102.453C5.36649 104.125 3.87302 105.379 2.07944 105.927L0 106.562Z" fill="#F2F5F7"/>
<path d="M0 169.999V122.585C28.5471 116.184 75.0428 104.987 106.44 94.7934C141.634 83.3665 202.282 63.8394 232.646 54.0763C235.594 53.1285 238.793 54.2655 240.5 56.8491L300.448 147.58C302.72 151.02 301.5 155.647 297.768 157.395C280.746 165.367 242.787 181.744 183.814 203.601C119.098 227.587 55.6885 237.208 27.1743 239.5C24.0205 239.753 21.1508 237.753 20.208 234.733L0 169.999Z" fill="#F2F5F7"/>
<path d="M0 374.742V290.276L5.12241 295.134C5.36752 295.366 5.62933 295.58 5.90579 295.774L224.865 449.512C228.743 452.234 228.789 457.964 224.955 460.749L179.323 493.892C176.945 495.619 173.734 495.651 171.322 493.973L0 374.742Z" fill="#F2F5F7"/>
<path d="M0 533.938V391.927L155.322 500.706C159.03 503.303 159.277 508.706 155.822 511.631L75.9782 579.232C73.6165 581.232 70.2129 581.416 67.6494 579.682L0 533.938Z" fill="#F2F5F7"/>
<path d="M986 776.115V797.474L927.041 808.691C923.465 809.371 919.975 807.158 919.065 803.634L917.645 798.129C916.664 794.328 919.044 790.476 922.882 789.653L986 776.115Z" fill="#F2F5F7"/>
<path d="M986 537.53V734.296L753.845 779.072L684.933 786.326H623.611C620.577 786.326 617.553 785.972 614.601 785.273L573.104 775.445L539.182 763.068C534.286 761.282 533.059 754.921 536.94 751.441L576.445 716.023C579.028 713.707 582.93 713.668 585.559 715.932L619.673 745.308C622.777 747.982 626.738 749.452 630.835 749.452H695.364C696.834 749.452 698.267 748.982 699.452 748.111L986 537.53Z" fill="#F2F5F7"/>
<path d="M986 407.818V517.561L913.56 570.67C910.484 572.926 906.161 572.259 903.907 569.181L862.356 512.428C860.16 509.429 860.733 505.229 863.652 502.928L952.721 432.701L986 407.818Z" fill="#F2F5F7"/>
<path d="M986 171.692V381.188L678.881 605.247C675.858 607.453 671.628 606.848 669.343 603.884L456.392 327.513C454.076 324.506 454.62 320.194 457.611 317.858L644.534 171.842C647.939 169.183 652.921 170.267 654.912 174.1L689.917 241.498C690.96 243.507 690.952 245.9 689.896 247.903L684.378 258.358C681.658 263.51 681.301 269.587 683.397 275.022L696.419 308.781L706.575 327.16C708.035 329.801 711.204 330.981 714.035 329.937L861.816 275.461C862.765 275.111 863.626 274.557 864.337 273.838L969.757 167.266C972.134 164.863 975.901 164.534 978.658 166.488L986 171.692Z" fill="#F2F5F7"/>
<path d="M986 89.7499V147.34L959.939 129.536C956.456 127.156 955.902 122.237 958.769 119.142L986 89.7499Z" fill="#F2F5F7"/>
<path d="M835.366 0H986V59.912L939.041 110.028C936.799 112.42 933.186 112.907 930.392 111.193L816.218 41.1437C812.864 39.086 811.905 34.6456 814.111 31.3875L835.366 0Z" fill="#F2F5F7"/>
<path d="M899.337 811H799.708L888.902 795.308C892.495 794.676 895.959 796.948 896.812 800.495L899.337 811Z" fill="#F2F5F7"/>
<path d="M563.597 811H524.546L524.247 808.558C523.633 803.547 528.428 799.594 533.23 801.151L563.597 811Z" fill="#F2F5F7"/>
<path d="M504.346 811H0V724.803L33.9015 724.063C36.5209 724.265 44.2986 723.459 54.454 718.623C64.6094 713.787 81.6559 682.354 88.9097 667.242L100.02 644.056C101.591 640.776 105.437 639.278 108.814 640.63L303.502 718.623L497.743 787.91C500.212 788.791 501.97 790.995 502.279 793.598L504.346 811Z" fill="#F2F5F7"/>
<path d="M0 708.555V582.645L82.8723 629.381C86.2029 631.259 87.3727 635.487 85.4814 638.81L48.5126 703.769C47.322 705.861 45.1278 707.182 42.7218 707.255L0 708.555Z" fill="#F2F5F7"/>
<path d="M714.215 310.927L700.208 275.651C699.708 274.392 699.589 273.014 699.867 271.689L704.225 250.867C704.647 248.848 705.812 247.061 707.487 245.858L727.504 231.487C728.135 231.034 728.837 230.691 729.582 230.471L819.873 203.916C820.582 203.707 821.32 203.614 822.059 203.639L893.303 206.096C899.245 206.301 902.166 213.42 898.081 217.74L857.101 261.076C856.379 261.839 855.492 262.428 854.508 262.797L719.691 313.353C717.509 314.171 715.074 313.093 714.215 310.927Z" fill="#F2F5F7"/>
<path d="M600.855 711.158L637.536 732.442C639.678 733.685 642.111 734.34 644.588 734.34H690.99C692.554 734.34 694.076 733.84 695.335 732.914L889.256 590.239C892.277 588.016 892.971 583.787 890.818 580.716L849.22 521.362C846.979 518.165 842.537 517.46 839.417 519.805L600.171 699.668C596.22 702.638 596.579 708.677 600.855 711.158Z" fill="#F2F5F7"/>
<path d="M443.829 300.33C440.784 302.656 436.427 302.056 434.122 298.995L400.025 253.694C397.778 250.708 398.313 246.477 401.233 244.146L618.548 70.6449C620.023 69.4667 621.917 68.9444 623.788 69.1995L644.538 72.0289C646.402 72.2831 648.082 73.2873 649.188 74.809L677.34 113.518C679.546 116.551 678.927 120.79 675.947 123.066L443.829 300.33Z" fill="#F2F5F7"/>
<path d="M416.414 720.203C413.601 719.259 411.709 716.512 413.202 713.948C416.198 708.805 422.974 703.553 426.818 701.093L605.766 569.082C608.781 566.858 613.019 567.444 615.318 570.403L655.075 621.591C657.504 624.718 656.828 629.23 653.58 631.495C626.507 650.37 576.617 685.741 553.76 704.116C533.064 720.754 518.866 737.42 512.096 746.757C510.217 749.348 506.885 750.547 503.851 749.529L416.414 720.203Z" fill="#F2F5F7"/>
<path d="M2.25775 273.084C-1.68793 269.064 0.581543 262.265 6.15091 261.421L12.745 260.422C46.5963 254.78 125.3 240.595 169.307 228.989C210.924 218.013 274.923 189.233 306.291 174.039C309.255 172.604 312.805 173.444 314.81 176.057L366.324 243.181C368.894 246.529 367.884 251.38 364.179 253.403C339.488 266.886 296.522 289.513 278.115 296.087C258.316 303.158 169.128 340.29 123.771 359.328C121.619 360.231 119.179 359.978 117.247 358.67L25.4068 296.474C25.0264 296.217 24.6726 295.922 24.3508 295.594L2.25775 273.084Z" fill="#F2F5F7"/>
<path d="M98.6072 585.469C95.1503 588.993 96.4024 594.902 100.992 596.721L391.404 711.855C394.941 713.257 398.946 711.534 400.359 708.001L401.913 704.117C402.388 702.93 403.182 701.899 404.208 701.137L596.52 558.361C599.603 556.071 600.226 551.706 597.905 548.646L545.332 479.31C543.042 476.289 538.745 475.68 535.706 477.944L397.157 581.164C393.96 583.546 389.4 582.608 387.403 579.157C385.74 576.285 386.442 572.627 389.051 570.575L436.792 533.026C437.636 532.362 437.803 531.15 437.171 530.282L404.968 486.071C403.677 484.299 401.202 483.897 399.417 485.168L319.866 541.835C316.832 543.996 312.624 543.303 310.443 540.284C308.272 537.277 308.921 533.083 311.901 530.875L397.901 467.117C401.818 464.213 407.36 465.121 410.147 469.123L447.907 523.353C448.603 524.353 449.992 524.57 450.96 523.83L526.603 465.989C529.623 463.68 530.208 459.363 527.91 456.333L439.366 339.558C437.097 336.564 432.85 335.935 429.809 338.142L122.625 561.117C122.314 561.343 122.022 561.595 121.752 561.87L98.6072 585.469Z" fill="#F2F5F7"/>
<path d="M242.08 442.702C244.481 444.32 247.636 444.268 249.982 442.573L416.852 321.992C419.996 319.72 420.652 315.305 418.304 312.217L381.955 264.415C379.931 261.755 376.293 260.925 373.316 262.447L308.583 295.537L146.456 365.436C141.441 367.598 140.802 374.45 145.331 377.501L242.08 442.702Z" fill="#F2F5F7"/>
<path d="M696.898 224.913C698.872 228.648 703.709 229.751 707.107 227.239L713.632 222.416C714.242 221.965 714.922 221.618 715.644 221.388L817.972 188.857C818.737 188.613 819.54 188.505 820.343 188.538L920.616 192.595C922.582 192.675 924.487 191.912 925.856 190.499L954.661 160.75C957.711 157.599 957.09 152.441 953.379 150.104L801.464 54.4539C799.005 52.9057 795.84 53.0627 793.546 54.8466L665.929 154.104C663.285 156.161 662.499 159.819 664.064 162.78L696.898 224.913Z" fill="#F2F5F7"/>
<circle cx="371.205" cy="399.908" r="8.00945" fill="#FF3D3D" fill-opacity="0.4"/>
<path fill-rule="evenodd" clip-rule="evenodd" d="M371.094 319.766C355.1 319.766 342.164 332.701 342.164 348.695C342.164 370.392 371.094 402.422 371.094 402.422C371.094 402.422 400.023 370.392 400.023 348.695C400.023 332.701 387.088 319.766 371.094 319.766V319.766ZM371.094 359.027C365.39 359.027 360.762 354.398 360.762 348.695C360.762 342.992 365.39 338.363 371.094 338.363C376.797 338.363 381.426 342.992 381.426 348.695C381.426 354.398 376.797 359.027 371.094 359.027V359.027Z" fill="#C2D1D9"/>
<mask id="mask0_580_8873" style="mask-type:luminance" maskUnits="userSpaceOnUse" x="342" y="319" width="59" height="84">
<path fill-rule="evenodd" clip-rule="evenodd" d="M371.094 319.766C355.1 319.766 342.164 332.701 342.164 348.695C342.164 370.392 371.094 402.422 371.094 402.422C371.094 402.422 400.023 370.392 400.023 348.695C400.023 332.701 387.088 319.766 371.094 319.766V319.766ZM371.094 359.027C365.39 359.027 360.762 354.398 360.762 348.695C360.762 342.992 365.39 338.363 371.094 338.363C376.797 338.363 381.426 342.992 381.426 348.695C381.426 354.398 376.797 359.027 371.094 359.027V359.027Z" fill="white"/>
</mask>
<g mask="url(#mask0_580_8873)">
<rect x="321.5" y="311.5" width="99.187" height="99.187" fill="#FF3D3D"/>
</g>
<rect x="414.5" y="280.5" width="292" height="176" rx="4" fill="#00569E"/>
<path d="M481.332 327.516C480.18 326.412 479.604 324.66 479.604 322.356V318.06C479.604 315.756 480.18 314.004 481.332 312.9C482.484 311.82 484.044 311.244 485.916 311.244C487.116 311.244 488.172 311.46 489.084 311.916C490.02 312.372 490.764 313.044 491.268 313.884C491.772 314.724 492.036 315.708 492.036 316.788V317.34H489.324V316.788C489.324 315.828 489.036 315.132 488.436 314.604C487.836 314.052 487.02 313.788 485.916 313.788C484.716 313.788 483.828 314.1 483.228 314.772C482.628 315.42 482.316 316.524 482.316 318.132V322.452C482.316 325.284 483.492 326.604 485.94 326.604C487.044 326.604 487.836 326.34 488.46 325.812C489.036 325.284 489.324 324.588 489.324 323.628V323.052H491.988V323.628C491.988 325.308 491.412 326.676 490.308 327.684C489.228 328.668 487.74 329.172 485.916 329.172C484.044 329.172 482.484 328.596 481.332 327.516ZM500.42 311.46C502.292 311.46 503.828 312.036 504.956 313.116C506.06 314.22 506.636 315.972 506.636 318.276V322.164C506.636 324.468 506.06 326.22 504.956 327.324C503.828 328.404 502.292 328.98 500.42 328.98H494.276V311.46H500.42ZM500.444 326.436C502.796 326.436 503.9 325.092 503.9 322.26V318.348C503.9 316.764 503.612 315.684 503.012 314.988C502.412 314.316 501.596 314.004 500.444 314.004H497.012V326.436H500.444ZM511.175 324.996L509.783 328.98H506.903L513.287 311.46H515.423L521.807 328.98H518.927L517.535 324.996H511.175ZM514.343 315.852L512.015 322.548H516.695L514.343 315.852ZM520.706 311.46H523.97L527.762 317.532L531.554 311.46H534.746L529.37 319.812L535.274 328.98H532.01L527.714 322.188L523.442 328.98H520.25L526.13 319.884L520.706 311.46Z" fill="white"/>
<path d="M485.484 351.116C486.18 350.084 486.54 349.1 486.54 348.212V347.852C486.54 347.06 486.324 346.412 485.868 345.956C485.412 345.5 484.812 345.26 484.068 345.26C483.324 345.26 482.724 345.476 482.292 345.932C481.86 346.388 481.644 347.06 481.644 347.948V348.38H479.916V347.852C479.916 346.604 480.3 345.596 481.068 344.828C481.812 344.084 482.844 343.7 484.116 343.7C484.956 343.7 485.676 343.868 486.324 344.228C486.972 344.588 487.452 345.092 487.812 345.716C488.148 346.34 488.316 347.036 488.316 347.804V348.212C488.316 348.884 488.196 349.532 487.956 350.132C487.716 350.732 487.356 351.38 486.876 352.028L482.076 358.94H488.316V360.5H479.916V359.084L485.484 351.116ZM498.564 345.524L493.164 360.5H491.412L496.884 345.524H490.14V343.94H498.564V345.524ZM517.271 360.5H515.519V352.82H507.767V360.5H506.015V343.94H507.767V351.236H515.519V343.94H517.271V360.5ZM521.565 359.444C520.725 358.652 520.293 357.404 520.293 355.652V353.156C520.293 351.428 520.725 350.156 521.565 349.364C522.405 348.572 523.557 348.164 524.973 348.164C526.365 348.164 527.493 348.572 528.333 349.364C529.173 350.156 529.581 351.428 529.581 353.156V355.652C529.581 357.38 529.173 358.652 528.333 359.444C527.493 360.236 526.365 360.644 524.973 360.644C523.557 360.644 522.405 360.236 521.565 359.444ZM527.157 358.364C527.685 357.836 527.949 356.9 527.949 355.556V353.252C527.949 351.932 527.685 350.996 527.157 350.444C526.605 349.916 525.885 349.652 524.973 349.652C524.037 349.652 523.293 349.916 522.741 350.444C522.189 350.996 521.925 351.932 521.925 353.252V355.556C521.925 356.9 522.189 357.836 522.741 358.364C523.293 358.916 524.037 359.18 524.973 359.18C525.885 359.18 526.605 358.916 527.157 358.364ZM534.114 348.332V350.036C534.426 349.436 534.858 348.956 535.41 348.644C535.962 348.332 536.586 348.188 537.282 348.188C538.53 348.188 539.538 348.596 540.33 349.388C541.122 350.18 541.506 351.452 541.506 353.156V355.652C541.506 357.38 541.122 358.652 540.354 359.444C539.586 360.236 538.602 360.644 537.402 360.644C535.89 360.644 534.786 360.068 534.114 358.892V364.148H532.482V348.332H534.114ZM539.874 353.276C539.874 350.852 538.938 349.652 537.066 349.652C536.082 349.652 535.362 349.988 534.858 350.66C534.354 351.356 534.114 352.268 534.114 353.396V355.532C534.114 356.612 534.378 357.476 534.906 358.148C535.41 358.844 536.178 359.18 537.162 359.18C538.962 359.18 539.874 357.98 539.874 355.556V353.276ZM545.653 355.46C545.653 356.828 545.941 357.788 546.493 358.34C547.045 358.892 547.837 359.18 548.821 359.18C549.685 359.18 550.357 358.964 550.861 358.556C551.341 358.148 551.581 357.572 551.581 356.828V356.756H553.165V356.876C553.165 358.004 552.781 358.916 551.989 359.612C551.197 360.308 550.093 360.644 548.701 360.644C547.285 360.644 546.133 360.212 545.293 359.372C544.453 358.532 544.021 357.212 544.021 355.412V353.3C544.021 351.548 544.453 350.252 545.293 349.412C546.133 348.572 547.261 348.164 548.653 348.164C550.045 348.164 551.173 348.572 552.013 349.412C552.853 350.252 553.261 351.548 553.261 353.3V354.74H545.653V355.46ZM546.469 350.444C545.917 350.996 545.653 351.932 545.653 353.252V353.516H551.629V353.084C551.629 351.812 551.365 350.924 550.837 350.42C550.309 349.916 549.589 349.652 548.653 349.652C547.741 349.652 547.021 349.916 546.469 350.444ZM561.678 359.42C560.742 358.604 560.19 357.404 560.046 355.82H561.774C561.99 358.004 563.31 359.108 565.71 359.108C566.958 359.108 567.918 358.844 568.566 358.316C569.214 357.788 569.526 357.02 569.526 356.012C569.526 355.1 569.262 354.404 568.758 353.948C568.254 353.492 567.462 353.156 566.43 352.988L564.558 352.676C563.214 352.46 562.182 351.98 561.462 351.284C560.742 350.588 560.382 349.628 560.382 348.356C560.382 346.892 560.862 345.764 561.846 344.948C562.83 344.132 564.102 343.724 565.71 343.724C567.174 343.724 568.398 344.108 569.334 344.852C570.27 345.62 570.822 346.772 570.99 348.332H569.262C569.07 346.268 567.87 345.236 565.686 345.236C564.558 345.236 563.67 345.5 563.046 346.028C562.398 346.58 562.086 347.3 562.086 348.236C562.086 349.052 562.326 349.676 562.83 350.132C563.31 350.588 564.054 350.924 565.038 351.092L566.958 351.428C568.35 351.668 569.406 352.148 570.15 352.868C570.894 353.588 571.254 354.596 571.254 355.916C571.254 357.428 570.75 358.58 569.742 359.396C568.734 360.236 567.342 360.644 565.59 360.644C563.934 360.644 562.614 360.236 561.678 359.42ZM576.412 357.404C576.412 358.508 576.94 359.06 577.972 359.06H578.932V360.5H577.708C576.772 360.5 576.052 360.236 575.548 359.684C575.02 359.156 574.756 358.412 574.756 357.476V349.628H572.86V348.332H574.756V345.548L576.412 344.78V348.332H579.148V349.628H576.412V357.404ZM583.296 348.332V349.964C583.632 349.364 584.088 348.908 584.64 348.596C585.192 348.308 585.792 348.164 586.488 348.164C586.8 348.164 587.088 348.188 587.376 348.236V349.868C586.992 349.748 586.584 349.676 586.128 349.676C585.288 349.676 584.616 349.964 584.112 350.54C583.584 351.116 583.32 351.86 583.32 352.796V360.5H581.688V348.332H583.296ZM590.71 355.46C590.71 356.828 590.998 357.788 591.55 358.34C592.102 358.892 592.894 359.18 593.878 359.18C594.742 359.18 595.414 358.964 595.918 358.556C596.398 358.148 596.638 357.572 596.638 356.828V356.756H598.222V356.876C598.222 358.004 597.838 358.916 597.046 359.612C596.254 360.308 595.15 360.644 593.758 360.644C592.342 360.644 591.19 360.212 590.35 359.372C589.51 358.532 589.078 357.212 589.078 355.412V353.3C589.078 351.548 589.51 350.252 590.35 349.412C591.19 348.572 592.318 348.164 593.71 348.164C595.102 348.164 596.23 348.572 597.07 349.412C597.91 350.252 598.318 351.548 598.318 353.3V354.74H590.71V355.46ZM591.526 350.444C590.974 350.996 590.71 351.932 590.71 353.252V353.516H596.686V353.084C596.686 351.812 596.422 350.924 595.894 350.42C595.366 349.916 594.646 349.652 593.71 349.652C592.798 349.652 592.078 349.916 591.526 350.444ZM602.468 355.46C602.468 356.828 602.756 357.788 603.308 358.34C603.86 358.892 604.652 359.18 605.636 359.18C606.5 359.18 607.172 358.964 607.676 358.556C608.156 358.148 608.396 357.572 608.396 356.828V356.756H609.98V356.876C609.98 358.004 609.596 358.916 608.804 359.612C608.012 360.308 606.908 360.644 605.516 360.644C604.1 360.644 602.948 360.212 602.108 359.372C601.268 358.532 600.836 357.212 600.836 355.412V353.3C600.836 351.548 601.268 350.252 602.108 349.412C602.948 348.572 604.076 348.164 605.468 348.164C606.86 348.164 607.988 348.572 608.828 349.412C609.668 350.252 610.076 351.548 610.076 353.3V354.74H602.468V355.46ZM603.284 350.444C602.732 350.996 602.468 351.932 602.468 353.252V353.516H608.444V353.084C608.444 351.812 608.18 350.924 607.652 350.42C607.124 349.916 606.404 349.652 605.468 349.652C604.556 349.652 603.836 349.916 603.284 350.444ZM615.546 357.404C615.546 358.508 616.074 359.06 617.106 359.06H618.066V360.5H616.842C615.906 360.5 615.186 360.236 614.682 359.684C614.154 359.156 613.89 358.412 613.89 357.476V349.628H611.994V348.332H613.89V345.548L615.546 344.78V348.332H618.282V349.628H615.546V357.404ZM621.879 358.268V362.3L620.295 363.788V358.268H621.879Z" fill="white"/>
<path d="M486.084 375.94C487.836 375.94 489.252 376.444 490.284 377.452C491.316 378.484 491.82 380.092 491.82 382.276V386.164C491.82 388.348 491.316 389.956 490.284 390.964C489.252 391.996 487.836 392.5 486.084 392.5H480.42V375.94H486.084ZM486.108 390.916C488.724 390.916 490.044 389.356 490.044 386.26V382.348C490.044 380.668 489.708 379.444 489.036 378.676C488.34 377.908 487.38 377.524 486.108 377.524H482.196V390.916H486.108ZM495.782 391.444C494.942 390.652 494.51 389.404 494.51 387.652V385.156C494.51 383.428 494.942 382.156 495.782 381.364C496.622 380.572 497.774 380.164 499.19 380.164C500.582 380.164 501.71 380.572 502.55 381.364C503.39 382.156 503.798 383.428 503.798 385.156V387.652C503.798 389.38 503.39 390.652 502.55 391.444C501.71 392.236 500.582 392.644 499.19 392.644C497.774 392.644 496.622 392.236 495.782 391.444ZM501.374 390.364C501.902 389.836 502.166 388.9 502.166 387.556V385.252C502.166 383.932 501.902 382.996 501.374 382.444C500.822 381.916 500.102 381.652 499.19 381.652C498.254 381.652 497.51 381.916 496.958 382.444C496.406 382.996 496.142 383.932 496.142 385.252V387.556C496.142 388.9 496.406 389.836 496.958 390.364C497.51 390.916 498.254 391.18 499.19 391.18C500.102 391.18 500.822 390.916 501.374 390.364ZM507.827 391.444C507.083 390.652 506.699 389.524 506.699 388.036V380.332H508.331V387.82C508.331 388.948 508.547 389.788 508.979 390.34C509.411 390.892 510.131 391.18 511.163 391.18C512.195 391.18 512.915 390.916 513.347 390.364C513.779 389.812 513.995 388.972 513.995 387.82V380.332H515.627V388.036C515.627 389.524 515.267 390.652 514.523 391.444C513.779 392.236 512.651 392.644 511.139 392.644C509.675 392.644 508.571 392.236 507.827 391.444ZM520.03 395.428C519.262 394.852 518.83 394.084 518.758 393.1H520.39C520.462 393.628 520.75 394.06 521.23 394.396C521.686 394.708 522.31 394.876 523.078 394.876C524.974 394.876 525.934 393.82 525.934 391.684V389.98C525.622 390.556 525.19 390.988 524.638 391.3C524.086 391.612 523.414 391.756 522.646 391.756C521.446 391.756 520.462 391.348 519.694 390.532C518.926 389.74 518.542 388.468 518.542 386.74V385.06C518.542 383.356 518.926 382.084 519.694 381.292C520.462 380.5 521.446 380.092 522.67 380.092C524.158 380.092 525.238 380.716 525.934 381.94V380.236H527.59V391.54C527.59 393.004 527.206 394.18 526.414 395.02C525.622 395.86 524.494 396.292 523.078 396.292C521.806 396.292 520.774 396.004 520.03 395.428ZM525.166 389.26C525.67 388.588 525.934 387.7 525.934 386.62V385.3C525.934 384.172 525.694 383.26 525.19 382.564C524.686 381.892 523.966 381.556 522.982 381.556C521.134 381.556 520.198 382.756 520.198 385.18V386.644C520.198 389.068 521.086 390.268 522.886 390.268C523.894 390.268 524.662 389.932 525.166 389.26ZM531.64 391.684C531.136 391.132 530.872 390.34 530.872 389.308V375.94H532.504V389.212C532.504 389.836 532.624 390.292 532.864 390.58C533.104 390.868 533.488 391.012 534.04 391.012H535.024V392.5H533.872C532.888 392.5 532.144 392.236 531.64 391.684ZM544.323 381.196C545.067 381.892 545.451 382.9 545.451 384.22V392.5H543.843V391.204C543.483 391.708 543.027 392.068 542.475 392.284C541.923 392.524 541.275 392.644 540.483 392.644C539.211 392.644 538.203 392.332 537.507 391.732C536.811 391.132 536.451 390.244 536.451 389.068C536.451 387.988 536.811 387.124 537.531 386.5C538.227 385.9 539.235 385.588 540.531 385.588H543.819V384.196C543.819 383.308 543.579 382.66 543.099 382.204C542.619 381.748 541.947 381.532 541.059 381.532C540.219 381.532 539.571 381.724 539.115 382.084C538.635 382.468 538.395 382.996 538.395 383.644V383.716H536.811V383.596C536.811 382.564 537.195 381.724 537.939 381.1C538.683 380.476 539.715 380.164 541.035 380.164C542.451 380.164 543.555 380.5 544.323 381.196ZM543.099 390.58C543.579 390.1 543.819 389.356 543.819 388.372V386.788H540.771C538.971 386.788 538.083 387.532 538.083 389.044C538.083 390.556 538.971 391.324 540.747 391.324C541.827 391.324 542.595 391.084 543.099 390.58ZM549.268 391.684C548.476 391.036 548.068 390.172 548.068 389.092V388.996H549.652V389.068C549.652 389.74 549.916 390.268 550.444 390.652C550.948 391.06 551.644 391.252 552.532 391.252C553.444 391.252 554.164 391.06 554.692 390.7C555.196 390.34 555.46 389.812 555.46 389.116C555.46 388.516 555.292 388.06 554.932 387.772C554.572 387.484 553.972 387.268 553.18 387.124L551.668 386.86C550.492 386.644 549.628 386.308 549.076 385.804C548.524 385.3 548.26 384.58 548.26 383.644C548.26 382.588 548.644 381.748 549.436 381.1C550.228 380.476 551.236 380.164 552.484 380.164C553.828 380.164 554.908 380.476 555.7 381.076C556.492 381.7 556.9 382.516 556.9 383.5V383.644H555.316V383.572C555.316 382.924 555.076 382.42 554.572 382.06C554.068 381.7 553.396 381.508 552.532 381.508C551.692 381.508 551.02 381.7 550.564 382.06C550.084 382.42 549.844 382.924 549.844 383.572C549.844 384.1 550.012 384.508 550.348 384.796C550.684 385.108 551.212 385.324 551.956 385.444L553.54 385.732C554.74 385.948 555.628 386.308 556.204 386.812C556.756 387.316 557.044 388.06 557.044 389.02C557.044 390.172 556.636 391.06 555.796 391.684C554.956 392.332 553.852 392.644 552.46 392.644C551.14 392.644 550.06 392.332 549.268 391.684ZM560.57 390.268V394.3L558.986 395.788V390.268H560.57ZM570.283 375.94V392.5H568.531V375.94H570.283ZM588.235 392.5H586.483V379.54L581.803 389.188H580.459L575.755 379.54V392.5H574.003V375.94H575.755L581.131 387.1L586.483 375.94H588.235V392.5ZM591.041 380.092V378.124L593.873 375.94H595.625V392.5H593.897V377.956L591.041 380.092ZM603.519 380.092V378.124L606.351 375.94H608.103V392.5H606.375V377.956L603.519 380.092ZM613.313 388.516L611.921 392.5H610.073L616.097 375.94H617.561L623.585 392.5H621.737L620.345 388.516H613.313ZM616.817 378.388L613.817 387.028H619.841L616.817 378.388ZM627.117 385.228V392.5H625.365V375.94H631.509C633.069 375.94 634.293 376.348 635.181 377.14C636.069 377.956 636.501 379.108 636.501 380.596C636.501 381.772 636.189 382.756 635.565 383.524C634.941 384.292 634.077 384.796 632.949 385.06L636.861 392.5H634.845L631.101 385.228H627.117ZM631.365 383.716C632.445 383.716 633.261 383.452 633.861 382.9C634.461 382.372 634.749 381.604 634.749 380.62C634.749 379.588 634.461 378.82 633.885 378.292C633.285 377.788 632.445 377.524 631.365 377.524H627.117V383.716H631.365ZM640.356 390.268V394.3L638.772 395.788V390.268H640.356Z" fill="white"/>
<path d="M482.364 407.94V424.5H480.612V407.94H482.364ZM486.493 423.684C485.701 423.036 485.293 422.172 485.293 421.092V420.996H486.877V421.068C486.877 421.74 487.141 422.268 487.669 422.652C488.173 423.06 488.869 423.252 489.757 423.252C490.669 423.252 491.389 423.06 491.917 422.7C492.421 422.34 492.685 421.812 492.685 421.116C492.685 420.516 492.517 420.06 492.157 419.772C491.797 419.484 491.197 419.268 490.405 419.124L488.893 418.86C487.717 418.644 486.853 418.308 486.301 417.804C485.749 417.3 485.485 416.58 485.485 415.644C485.485 414.588 485.869 413.748 486.661 413.1C487.453 412.476 488.461 412.164 489.709 412.164C491.053 412.164 492.133 412.476 492.925 413.076C493.717 413.7 494.125 414.516 494.125 415.5V415.644H492.541V415.572C492.541 414.924 492.301 414.42 491.797 414.06C491.293 413.7 490.621 413.508 489.757 413.508C488.917 413.508 488.245 413.7 487.789 414.06C487.309 414.42 487.069 414.924 487.069 415.572C487.069 416.1 487.237 416.508 487.573 416.796C487.909 417.108 488.437 417.324 489.181 417.444L490.765 417.732C491.965 417.948 492.853 418.308 493.429 418.812C493.981 419.316 494.269 420.06 494.269 421.02C494.269 422.172 493.861 423.06 493.021 423.684C492.181 424.332 491.077 424.644 489.685 424.644C488.365 424.644 487.285 424.332 486.493 423.684ZM497.506 423.684C497.002 423.132 496.738 422.34 496.738 421.308V407.94H498.37V421.212C498.37 421.836 498.49 422.292 498.73 422.58C498.97 422.868 499.354 423.012 499.906 423.012H500.89V424.5H499.738C498.754 424.5 498.01 424.236 497.506 423.684ZM504.237 419.46C504.237 420.828 504.525 421.788 505.077 422.34C505.629 422.892 506.421 423.18 507.405 423.18C508.269 423.18 508.941 422.964 509.445 422.556C509.925 422.148 510.165 421.572 510.165 420.828V420.756H511.749V420.876C511.749 422.004 511.365 422.916 510.573 423.612C509.781 424.308 508.677 424.644 507.285 424.644C505.869 424.644 504.717 424.212 503.877 423.372C503.037 422.532 502.605 421.212 502.605 419.412V417.3C502.605 415.548 503.037 414.252 503.877 413.412C504.717 412.572 505.845 412.164 507.237 412.164C508.629 412.164 509.757 412.572 510.597 413.412C511.437 414.252 511.845 415.548 511.845 417.3V418.74H504.237V419.46ZM505.053 414.444C504.501 414.996 504.237 415.932 504.237 417.252V417.516H510.213V417.084C510.213 415.812 509.949 414.924 509.421 414.42C508.893 413.916 508.173 413.652 507.237 413.652C506.325 413.652 505.605 413.916 505.053 414.444ZM520.526 423.444C519.686 422.652 519.254 421.404 519.254 419.652V417.156C519.254 415.428 519.686 414.156 520.526 413.364C521.366 412.572 522.518 412.164 523.934 412.164C525.326 412.164 526.454 412.572 527.294 413.364C528.134 414.156 528.542 415.428 528.542 417.156V419.652C528.542 421.38 528.134 422.652 527.294 423.444C526.454 424.236 525.326 424.644 523.934 424.644C522.518 424.644 521.366 424.236 520.526 423.444ZM526.118 422.364C526.646 421.836 526.91 420.9 526.91 419.556V417.252C526.91 415.932 526.646 414.996 526.118 414.444C525.566 413.916 524.846 413.652 523.934 413.652C522.998 413.652 522.254 413.916 521.702 414.444C521.15 414.996 520.886 415.932 520.886 417.252V419.556C520.886 420.9 521.15 421.836 521.702 422.364C522.254 422.916 522.998 423.18 523.934 423.18C524.846 423.18 525.566 422.916 526.118 422.364ZM534.036 412.332H536.58V413.628H534.036V424.5H532.38V413.628H530.844V412.332H532.38V410.964C532.38 410.028 532.644 409.308 533.172 408.756C533.676 408.204 534.396 407.94 535.308 407.94H536.58V409.236H535.572C534.54 409.236 534.036 409.788 534.036 410.892V412.332ZM558.226 424.5H556.474V411.54L551.794 421.188H550.45L545.746 411.54V424.5H543.994V407.94H545.746L551.122 419.1L556.474 407.94H558.226V424.5ZM568.833 413.196C569.577 413.892 569.961 414.9 569.961 416.22V424.5H568.353V423.204C567.993 423.708 567.537 424.068 566.985 424.284C566.433 424.524 565.785 424.644 564.993 424.644C563.721 424.644 562.713 424.332 562.017 423.732C561.321 423.132 560.961 422.244 560.961 421.068C560.961 419.988 561.321 419.124 562.041 418.5C562.737 417.9 563.745 417.588 565.041 417.588H568.329V416.196C568.329 415.308 568.089 414.66 567.609 414.204C567.129 413.748 566.457 413.532 565.569 413.532C564.729 413.532 564.081 413.724 563.625 414.084C563.145 414.468 562.905 414.996 562.905 415.644V415.716H561.321V415.596C561.321 414.564 561.705 413.724 562.449 413.1C563.193 412.476 564.225 412.164 565.545 412.164C566.961 412.164 568.065 412.5 568.833 413.196ZM567.609 422.58C568.089 422.1 568.329 421.356 568.329 420.372V418.788H565.281C563.481 418.788 562.593 419.532 562.593 421.044C562.593 422.556 563.481 423.324 565.257 423.324C566.337 423.324 567.105 423.084 567.609 422.58ZM574.858 412.332V413.82C575.218 413.268 575.674 412.86 576.25 412.596C576.802 412.332 577.45 412.188 578.146 412.188C579.442 412.188 580.45 412.572 581.146 413.316C581.842 414.084 582.178 415.14 582.178 416.508V424.5H580.546V416.748C580.546 415.74 580.306 414.972 579.802 414.444C579.298 413.916 578.626 413.652 577.738 413.652C576.874 413.652 576.178 413.916 575.674 414.444C575.146 414.996 574.882 415.764 574.882 416.748V424.5H573.25V412.332H574.858Z" fill="white"/>
<path d="M408.289 369.394C407.552 369.026 407.552 367.974 408.289 367.606L414.5 364.5V372.5L408.289 369.394Z" fill="#00569E"/>
</g>
<defs>
<clipPath id="clip0_580_8873">
<rect width="986" height="811" fill="white"/>
</clipPath>
</defs>
</svg>
