<?xml version="1.0" encoding="utf-8"?>
<!-- Generator: Adobe Illustrator 16.0.0, SVG Export Plug-In . SVG Version: 6.00 Build 0)  -->
<!DOCTYPE svg PUBLIC "-//W3C//DTD SVG 1.1//EN" "http://www.w3.org/Graphics/SVG/1.1/DTD/svg11.dtd">
<svg version="1.1" id="Layer_1" xmlns="http://www.w3.org/2000/svg" xmlns:xlink="http://www.w3.org/1999/xlink" x="0px" y="0px"
	 width="120px" height="40px" viewBox="0 0 153.652 51.358" enable-background="new 0 0 153.652 51.358"
	 xml:space="preserve">
<g>
	<g>
		<g>
			<g>
				<path fill="#00569E" d="M67.489,0h10.09c10.596,0,17.564,5.546,17.564,18.094c0,12.563-6.969,18.43-17.098,18.43H67.489V0z
					 M77.122,29.866c5.682,0,9.546-3.035,9.546-11.771c0-8.723-3.864-11.437-9.546-11.437h-1.367v23.208H77.122z"/>
			</g>
			<g>
				<path fill="#F49C0E" d="M17.383,14.088h-2.859L27.681,0.004H4.79c-2.646,0-4.791,2.145-4.791,4.791v31.138
					c0,0.324,0.264,0.588,0.588,0.588h7.759V22.435L17.383,14.088z"/>
				<path fill="#F49C0E" d="M27.681,0.004v14.084l-9.037,8.346h2.859L8.346,36.52h22.892c2.645,0,4.789-2.145,4.789-4.791V0.592
					c0-0.325-0.263-0.588-0.588-0.588H27.681z"/>
			</g>
			<path fill="#00569E" d="M50.341,29.592v-7.266v-1.197v-5.734v-1.197V6.931l0,0h4.753h4.335h2.544l0.429-0.678L66.358,0H50.419
				c-0.026,0-0.053,0.004-0.078,0.004l0,0c-4.572,0.042-8.268,3.759-8.268,8.341v19.833c0,4.582,3.695,8.299,8.268,8.342l0,0h4.753
				h4.335h2.544l0.429-0.678l3.957-6.254H50.419C50.393,29.588,50.366,29.592,50.341,29.592z"/>
			<path fill="#00569E" d="M141.967,17.747L152.84,0h-9.023l-4.483,7.385c-0.336,0.535-0.683,1.125-1.037,1.774
				c-0.355,0.649-0.682,1.279-0.98,1.89h-0.112c-0.263-0.61-0.57-1.24-0.925-1.89c-0.355-0.649-0.701-1.24-1.037-1.774L130.758,0
				h-9.528l10.93,17.975l-8.658,13.977L113.55,0h-9.91L92.265,36.524h8.459l2.23-8.688l1.141-4.445h8.717l1.133,4.445l2.216,8.688
				h8.765l0,0h4.768l4.876-7.9c0.374-0.609,0.766-1.27,1.177-1.975c0.411-0.707,0.766-1.383,1.065-2.033h0.112
				c0.336,0.65,0.7,1.336,1.093,2.061c0.393,0.727,0.757,1.375,1.093,1.947l4.764,7.9h9.529L141.967,17.747z M105.774,16.824
				c0.841-3.362,1.734-7.134,2.531-10.571h0.224c0.783,3.437,1.751,7.208,2.608,10.571H105.774z"/>
		</g>
	</g>
	<g>
		<path fill="#00569E" d="M115.955,42.206h5.183v0.969h-4.039v3.031h3.426v0.967h-3.426v4.021h-1.144V42.206z"/>
		<path fill="#00569E" d="M122.403,46.667c0-2.877,1.584-4.625,3.842-4.625s3.842,1.752,3.842,4.625
			c0,2.879-1.584,4.691-3.842,4.691S122.403,49.545,122.403,46.667z M128.905,46.667c0-2.238-1.055-3.619-2.66-3.619
			c-1.604,0-2.66,1.381-2.66,3.619c0,2.24,1.056,3.688,2.66,3.688C127.851,50.354,128.905,48.907,128.905,46.667z"/>
		<path fill="#00569E" d="M138.59,51.194l-2.29-3.928c1.221-0.299,2.021-1.131,2.021-2.531c0-1.871-1.314-2.529-3.145-2.529h-2.814
			v8.988h1.143v-3.799h1.625l2.163,3.799H138.59z M133.505,43.133h1.508c1.398,0,2.168,0.42,2.168,1.602
			c0,1.166-0.77,1.732-2.168,1.732h-1.508V43.133z"/>
		<path fill="#00569E" d="M140.497,42.206h5.18v0.969h-4.037v2.816h3.406v0.967h-3.406v3.27h4.174v0.967h-5.316V42.206z"/>
		<path fill="#00569E" d="M149.651,46.551l-2.445-4.346h1.262l1.226,2.301c0.226,0.41,0.418,0.781,0.699,1.305h0.055
			c0.243-0.523,0.418-0.895,0.634-1.305l1.195-2.301h1.205l-2.446,4.402l2.618,4.586h-1.262l-1.318-2.42
			c-0.236-0.447-0.48-0.896-0.769-1.443h-0.055c-0.261,0.547-0.487,0.996-0.714,1.443l-1.298,2.42h-1.204L149.651,46.551z"/>
	</g>
	<rect x="42.073" y="46.088" fill="#F49C0E" width="69.064" height="1.18"/>
</g>
</svg>
