<svg width="52" height="52" viewBox="0 0 52 52" fill="none" xmlns="http://www.w3.org/2000/svg">
<path d="M26.0001 0.166656C11.7401 0.166656 0.166748 11.74 0.166748 26C0.166748 40.26 11.7401 51.8333 26.0001 51.8333C40.2601 51.8333 51.8334 40.26 51.8334 26C51.8334 11.74 40.2601 0.166656 26.0001 0.166656ZM13.2642 42.2233C14.3751 39.8983 21.1434 37.625 26.0001 37.625C30.8568 37.625 37.6509 39.8983 38.7359 42.2233C35.2226 45.0133 30.8051 46.6667 26.0001 46.6667C21.1951 46.6667 16.7776 45.0133 13.2642 42.2233ZM42.4301 38.4775C38.7359 33.9825 29.7717 32.4583 26.0001 32.4583C22.2284 32.4583 13.2642 33.9825 9.57008 38.4775C6.93508 35.0158 5.33342 30.7017 5.33342 26C5.33342 14.6075 14.6076 5.33332 26.0001 5.33332C37.3926 5.33332 46.6668 14.6075 46.6668 26C46.6668 30.7017 45.0651 35.0158 42.4301 38.4775ZM26.0001 10.5C20.9884 10.5 16.9584 14.53 16.9584 19.5417C16.9584 24.5533 20.9884 28.5833 26.0001 28.5833C31.0117 28.5833 35.0418 24.5533 35.0418 19.5417C35.0418 14.53 31.0117 10.5 26.0001 10.5ZM26.0001 23.4167C23.8559 23.4167 22.1251 21.6858 22.1251 19.5417C22.1251 17.3975 23.8559 15.6667 26.0001 15.6667C28.1442 15.6667 29.8751 17.3975 29.8751 19.5417C29.8751 21.6858 28.1442 23.4167 26.0001 23.4167Z" fill="#00569E"/>
</svg>
