<svg width="131" height="32" viewBox="0 0 131 32" fill="none" xmlns="http://www.w3.org/2000/svg">
<path d="M57.2478 0H65.8066C74.7946 0 80.7052 4.85905 80.7052 15.8528C80.7052 26.8597 74.7938 32 66.2019 32H57.2478V0ZM65.419 26.1667C70.2387 26.1667 73.5163 23.5076 73.5163 15.8537C73.5163 8.21115 70.2387 5.83332 65.419 5.83332H64.2594V26.1667H65.419Z" fill="#00569E"/>
<path d="M14.7459 12.3434H12.3208L23.4812 0.00390625H4.06395C1.81949 0.00390625 0 1.88322 0 4.20148V31.4826C0 31.7665 0.223937 31.9978 0.498769 31.9978H7.08031V19.6565L14.7459 12.3434Z" fill="#F49C0E"/>
<path d="M23.4804 0.00390625V12.3434L15.8148 19.6556H18.24L7.07959 31.9969H26.4977C28.7413 31.9969 30.5599 30.1176 30.5599 27.7993V0.519075C30.5599 0.23433 30.3368 0.00390625 30.0611 0.00390625H23.4804Z" fill="#F49C0E"/>
<path d="M42.7025 25.9266V19.5606V18.5119V13.4881V12.4394V6.0725H46.7342H50.4114H52.5693L52.9332 5.47848L56.2889 0H42.7687C42.7466 0 42.7237 0.00350455 42.7025 0.00350455C38.8243 0.0403023 35.6892 3.2969 35.6892 7.31136V24.6878C35.6892 28.7022 38.8235 31.9588 42.7025 31.9965H46.7342H50.4114H52.5693L52.9332 31.4025L56.2897 25.9231H42.7687C42.7466 25.9231 42.7237 25.9266 42.7025 25.9266Z" fill="#00569E"/>
<path d="M120.424 15.5488L129.647 0H121.993L118.191 6.47027C117.906 6.939 117.611 7.45592 117.311 8.02453C117.01 8.59315 116.732 9.14511 116.48 9.68043H116.385C116.162 9.14599 115.901 8.59402 115.6 8.02453C115.299 7.45592 115.005 6.93812 114.72 6.47027L110.916 0H102.834L112.105 15.7486L104.761 27.9943L96.3193 0H87.9132L78.2644 32H85.4397L87.3313 24.3881L88.2992 20.4937H95.6933L96.6544 24.3881L98.5341 32H105.969H110.013L114.149 25.0785C114.467 24.545 114.799 23.9658 115.148 23.3482C115.496 22.7287 115.798 22.1365 116.051 21.567H116.146C116.431 22.1365 116.74 22.7375 117.073 23.3727C117.407 24.0096 117.716 24.5774 118.001 25.0785L122.042 32H130.125L120.424 15.5488ZM89.7234 14.7401C90.4367 11.7945 91.1942 8.48976 91.8703 5.47848H92.0603C92.7245 8.48976 93.5456 11.7937 94.2725 14.7401H89.7234Z" fill="#00569E"/>
</svg>
